<svg xmlns="http://www.w3.org/2000/svg" width="754" height="754" viewBox="0 0 754 754">
  <g id="Grupo_370" data-name="Grupo 370" transform="translate(-896 -232)">
    <circle id="Elipse_3" data-name="Elipse 3" cx="377" cy="377" r="377" transform="translate(896 232)" fill="#fff"/>
    <g id="Grupo_157" data-name="Grupo 157" transform="translate(75.27 118.819)">
      <g id="Grupo_152" data-name="Grupo 152" transform="translate(931.644 499.938)">
        <path id="Caminho_105" data-name="Caminho 105" d="M1083.114,426.087a211.6,211.6,0,0,1-151.576-89.743A266.514,266.514,0,0,0,1141.13,586.755a213.326,213.326,0,0,1-16.873-20.015A210.329,210.329,0,0,1,1083.114,426.087Z" transform="translate(-931.538 -336.344)" fill="#2273e1"/>
      </g>
      <g id="Grupo_153" data-name="Grupo 153" transform="translate(1254.279 230.021)">
        <path id="Caminho_106" data-name="Caminho 106" d="M1124.636,390.76a210.607,210.607,0,0,1,147.447,84.075c.12.164.236.331.356.5A266.48,266.48,0,0,0,1062.96,226.4,210.914,210.914,0,0,1,1124.636,390.76Z" transform="translate(-1062.96 -226.396)" fill="#2273e1"/>
      </g>
      <g id="Grupo_154" data-name="Grupo 154" transform="translate(931.465 223.905)">
        <path id="Caminho_107" data-name="Caminho 107" d="M967.5,539.7a210.2,210.2,0,0,0,115.717,49.978,211.15,211.15,0,0,1,232.735-195.3,210.914,210.914,0,0,0-61.676-164.364,264.962,264.962,0,0,0-149.9,10.858C994.24,282.12,927.544,388.535,931.644,499.938A211.48,211.48,0,0,0,967.5,539.7Z" transform="translate(-931.465 -223.905)" fill="#55af7d"/>
      </g>
      <g id="Grupo_155" data-name="Grupo 155" transform="translate(1082.697 394.385)">
        <path id="Caminho_108" data-name="Caminho 108" d="M1201.462,638.446c110.618-41.425,177.41-148.591,172.667-260.527-.12-.164-.236-.331-.356-.5a210.607,210.607,0,0,0-147.447-84.075,211.206,211.206,0,0,1-232.735,195.3A210.329,210.329,0,0,0,1034.734,629.3a213.326,213.326,0,0,0,16.873,20.015A264.931,264.931,0,0,0,1201.462,638.446Z" transform="translate(-993.068 -293.348)" fill="#8e68ff"/>
      </g>
      <g id="Grupo_156" data-name="Grupo 156" transform="translate(1083.22 393.215)">
        <path id="Caminho_109" data-name="Caminho 109" d="M1078,334.533a210.691,210.691,0,0,0-84.723,154.8,211.206,211.206,0,0,0,232.735-195.3A210.409,210.409,0,0,0,1078,334.533Z" transform="translate(-993.281 -292.871)" fill="#fff"/>
      </g>
    </g>
  </g>
</svg>
