<svg xmlns="http://www.w3.org/2000/svg" width="580.547" height="133.014" viewBox="0 0 580.547 133.014">
  <g id="Grupo_162" data-name="Grupo 162" transform="translate(-593.131 -1325.375)">
    <g id="Componente_1_34" data-name="Componente 1 – 34" transform="translate(1035.105 1418.514)">
      <path id="Caminho_110" data-name="Caminho 110" d="M183.688-92.46a4.75,4.75,0,0,1,2.61.572,1.955,1.955,0,0,1,.857,1.738A1.97,1.97,0,0,1,186.3-88.4a4.75,4.75,0,0,1-2.61.572h-9.836a4.42,4.42,0,0,1-2.59-.618,2.184,2.184,0,0,1-.846-1.888,3.335,3.335,0,0,1,.252-1.253,9.459,9.459,0,0,1,1.1-1.784l8.767-11.906H174.22a4.966,4.966,0,0,1-2.635-.551,1.9,1.9,0,0,1-.847-1.717,1.921,1.921,0,0,1,.872-1.707,4.8,4.8,0,0,1,2.61-.572h8.314a6.626,6.626,0,0,1,3.189.588,1.994,1.994,0,0,1,1.017,1.861,5.64,5.64,0,0,1-1.345,2.944l-.085.124L176.76-92.46Z" transform="translate(-90.964 119.634)" fill="#f5eee9"/>
      <path id="Caminho_111" data-name="Caminho 111" d="M294.7-94.916l-.224,2.335a4.076,4.076,0,0,1-.556,1.858,1.972,1.972,0,0,1-1.231.891,2.2,2.2,0,0,1-1.786-.279,2.378,2.378,0,0,1-1.022-1.536,4.831,4.831,0,0,1-.115-.777,3.191,3.191,0,0,1,.025-.688l2.009-16.433a5.888,5.888,0,0,1,.932-2.752,3.35,3.35,0,0,1,2.005-1.282,3.318,3.318,0,0,1,2.285.224,4.666,4.666,0,0,1,1.863,1.78l8.806,14.125c.177.3.322.575.433.813a3.391,3.391,0,0,1,.233.659,2.278,2.278,0,0,1-.286,1.815,2.428,2.428,0,0,1-1.548,1.041,2.167,2.167,0,0,1-1.67-.222,4.107,4.107,0,0,1-1.375-1.568l-1.04-1.844Zm1.144-5.015,3.366-.8c.516-.123.6-.587.338-1.046L296.27-107.5c-.158-.275-.513-.183-.545.159l-.615,6.742c-.046.49.209.794.732.669" transform="translate(-169.856 122.159)" fill="#f5eee9"/>
      <path id="Caminho_112" data-name="Caminho 112" d="M216.971-110.194l8.171,1.334c.667.109.85-.471.659-.933l-3.131-7.574c-.158-.384-.449-.419-.709-.113l-5.317,6.238a.605.605,0,0,0,.326,1.049m10.057,6.023-13.243-2.161-2.327,2.7A4.084,4.084,0,0,1,209-102.154a2.218,2.218,0,0,1-2.011-.816,2.333,2.333,0,0,1-.691-2.1,6.12,6.12,0,0,1,1.574-2.432l12.081-14.023a4.126,4.126,0,0,1,2.466-1.483,2,2,0,0,1,.75.024,2,2,0,0,1,.721.216,4.207,4.207,0,0,1,1.893,2.194L233-103.4a6.212,6.212,0,0,1,.757,2.812,2.3,2.3,0,0,1-1.3,1.779,2.2,2.2,0,0,1-2.159.136,4.169,4.169,0,0,1-1.889-2.185Z" transform="translate(-114.656 128.266)" fill="#f5eee9"/>
      <path id="Caminho_113" data-name="Caminho 113" d="M47.018-92.134a4.433,4.433,0,0,1,2.278.977,1.823,1.823,0,0,1,.489,1.731,1.806,1.806,0,0,1-1.071,1.445,4.383,4.383,0,0,1-2.47.064L37.3-89.638a4.121,4.121,0,0,1-2.252-1.016,2.035,2.035,0,0,1-.455-1.865,3.051,3.051,0,0,1,.439-1.1,8.626,8.626,0,0,1,1.3-1.43l9.964-9.3-5.748-1.105a4.627,4.627,0,0,1-2.3-.963,1.773,1.773,0,0,1-.484-1.71,1.759,1.759,0,0,1,1.078-1.4,4.427,4.427,0,0,1,2.47-.064l7.563,1.454a6.185,6.185,0,0,1,2.8,1.093,1.862,1.862,0,0,1,.615,1.872,5.172,5.172,0,0,1-1.716,2.443l-.1.1-9.757,9.278Z" transform="translate(-1.14 119.569)" fill="#f5eee9"/>
      <path id="Caminho_114" data-name="Caminho 114" d="M85.609-77.041a4.343,4.343,0,0,1-1.083,2.283,1.918,1.918,0,0,1-1.84.4,1.962,1.962,0,0,1-1.492-1.18,4.4,4.4,0,0,1-.008-2.538L84.292-92.01A4.4,4.4,0,0,1,85.377-94.3a1.914,1.914,0,0,1,1.846-.406,1.953,1.953,0,0,1,1.487,1.184,4.458,4.458,0,0,1,.006,2.547Z" transform="translate(-31.858 109.812)" fill="#f5eee9"/>
      <path id="Caminho_115" data-name="Caminho 115" d="M119.022-89.136l-1.572-.3a4.411,4.411,0,0,1-2.276-.969,1.844,1.844,0,0,1-.464-1.745,1.845,1.845,0,0,1,1.061-1.467,4.261,4.261,0,0,1,2.458-.078l3.278.627a3.433,3.433,0,0,1,2.262,1.171,3.268,3.268,0,0,1,.3,2.475,9.742,9.742,0,0,1-3.784,6.451,8.777,8.777,0,0,1-7.1,1.394,8.836,8.836,0,0,1-6.2-4.246,11.367,11.367,0,0,1-1.218-8.157,10.945,10.945,0,0,1,4.088-7.2,9.5,9.5,0,0,1,7.731-1.487,9.948,9.948,0,0,1,4.865,2.243q1.867,1.661,1.57,3.3a2.224,2.224,0,0,1-.837,1.389,1.725,1.725,0,0,1-1.448.393,6.827,6.827,0,0,1-2.036-1.4,6.749,6.749,0,0,0-3.058-1.6,4.407,4.407,0,0,0-3.89.955,7.017,7.017,0,0,0-2.147,4.245,7.528,7.528,0,0,0,.484,4.875,4.388,4.388,0,0,0,3.244,2.4,3.856,3.856,0,0,0,3.046-.548,4.169,4.169,0,0,0,1.65-2.719" transform="translate(-48.055 115.117)" fill="#f5eee9"/>
      <path id="Caminho_116" data-name="Caminho 116" d="M-53.594-83.719a3.213,3.213,0,0,1,1.808.068,1.311,1.311,0,0,1,.772,1.057,1.346,1.346,0,0,1-.37,1.274,3.238,3.238,0,0,1-1.677.7l-6.566,1.185a2.982,2.982,0,0,1-1.8-.1,1.466,1.466,0,0,1-.782-1.158,2.264,2.264,0,0,1,.023-.867,6.464,6.464,0,0,1,.532-1.324l4.483-9-4.218.761a3.354,3.354,0,0,1-1.822-.051,1.277,1.277,0,0,1-.763-1.044,1.313,1.313,0,0,1,.385-1.244,3.274,3.274,0,0,1,1.677-.7l5.55-1a4.48,4.48,0,0,1,2.2.008,1.339,1.339,0,0,1,.894,1.12,3.848,3.848,0,0,1-.56,2.128l-.043.093-4.346,8.937Z" transform="translate(64 110.149)" fill="#f5eee9"/>
      <path id="Caminho_117" data-name="Caminho 117" d="M-22.368-84.692a3.222,3.222,0,0,1-.165,1.851,1.428,1.428,0,0,1-1.16.763,1.411,1.411,0,0,1-1.321-.414,3.2,3.2,0,0,1-.647-1.737L-27.055-94.6a3.265,3.265,0,0,1,.164-1.858,1.425,1.425,0,0,1,1.162-.767,1.4,1.4,0,0,1,1.318.418,3.237,3.237,0,0,1,.648,1.743Z" transform="translate(39.612 111.42)" fill="#f5eee9"/>
      <path id="Caminho_118" data-name="Caminho 118" d="M-2.551-87.878l-1.135.3a3.2,3.2,0,0,1-1.8.075,1.323,1.323,0,0,1-.835-1.012,1.379,1.379,0,0,1,.262-1.31,3.167,3.167,0,0,1,1.609-.828l2.366-.619a2.478,2.478,0,0,1,1.856.063,2.352,2.352,0,0,1,.945,1.55,7.259,7.259,0,0,1-.567,5.48,6.563,6.563,0,0,1-4.3,3.169,6.352,6.352,0,0,1-5.4-.86,8.173,8.173,0,0,1-3.27-5.033,8.147,8.147,0,0,1,.542-6.076,7.1,7.1,0,0,1,4.685-3.43,7.2,7.2,0,0,1,3.908-.048q1.741.513,2.038,1.7a1.656,1.656,0,0,1-.137,1.187,1.291,1.291,0,0,1-.843.718A4.895,4.895,0,0,1-4.4-93.145a4.879,4.879,0,0,0-2.512-.093,3.3,3.3,0,0,0-2.3,1.863,5.21,5.21,0,0,0-.146,3.5,5.421,5.421,0,0,0,1.793,3.085,3.149,3.149,0,0,0,2.878.568,2.881,2.881,0,0,0,1.858-1.327,3.11,3.11,0,0,0,.276-2.327" transform="translate(30.388 111.069)" fill="#f5eee9"/>
      <path id="Caminho_119" data-name="Caminho 119" d="M-40.568-137.584a6.492,6.492,0,0,1,8.578,3.559,6.756,6.756,0,0,1-3.478,8.778,6.492,6.492,0,0,1-8.578-3.558,6.757,6.757,0,0,1,3.477-8.778" transform="translate(51.152 138.115)" fill="#f5eee9" fill-rule="evenodd"/>
      <path id="Caminho_120" data-name="Caminho 120" d="M91.126-137.914l7.971,1.891a.813.813,0,0,1,.592.972l-1.847,8.157a.794.794,0,0,1-.95.607l-7.972-1.891a.814.814,0,0,1-.592-.972l1.848-8.157a.794.794,0,0,1,.95-.607" transform="translate(-36.685 137.997)" fill="#f5eee9" fill-rule="evenodd"/>
      <path id="Caminho_121" data-name="Caminho 121" d="M221.076-49.963l12.227,1.94c1,.159,1.269-.709.98-1.4l-4.729-11.305c-.24-.574-.674-.624-1.061-.165l-7.912,9.362a.9.9,0,0,0,.494,1.567" transform="translate(-123.935 87.878)" fill="#f5eee9"/>
    </g>
    <g id="Componente_2_40" data-name="Componente 2 – 40" transform="translate(800.294 1418.514)">
      <path id="Caminho_122" data-name="Caminho 122" d="M-260.811,3.22a5.1,5.1,0,0,1-1.869,1.464,5.729,5.729,0,0,1-2.389.5,6.961,6.961,0,0,1-5.5-2.611A9.654,9.654,0,0,1-272.8-3.935a9.535,9.535,0,0,1,2.307-6.5,7.17,7.17,0,0,1,5.612-2.642,5.462,5.462,0,0,1,2.3.451,4.825,4.825,0,0,1,1.771,1.391,3.366,3.366,0,0,1,1.06-1.233,2.388,2.388,0,0,1,1.369-.417,2.133,2.133,0,0,1,1.894.91,5.143,5.143,0,0,1,.616,2.831V1.244a5.112,5.112,0,0,1-.629,2.839,2.1,2.1,0,0,1-1.881.927,2.371,2.371,0,0,1-1.433-.429,3.378,3.378,0,0,1-1-1.361M-267.53-4a4.814,4.814,0,0,0,.914,3.066A2.89,2.89,0,0,0-264.235.227a2.869,2.869,0,0,0,2.356-1.173A4.89,4.89,0,0,0-260.965-4a4.637,4.637,0,0,0-.92-2.976,2.884,2.884,0,0,0-2.349-1.155,2.909,2.909,0,0,0-2.372,1.151A4.583,4.583,0,0,0-267.53-4" transform="translate(292.181 21.388)" fill="#f5eee9"/>
      <path id="Caminho_123" data-name="Caminho 123" d="M114.428-4.138a9.33,9.33,0,0,1,2.435-6.639,8.123,8.123,0,0,1,6.188-2.6,8.074,8.074,0,0,1,6.187,2.594,9.35,9.35,0,0,1,2.41,6.644,9.4,9.4,0,0,1-2.41,6.648,8.077,8.077,0,0,1-6.187,2.6A8.089,8.089,0,0,1,116.863,2.5a9.321,9.321,0,0,1-2.435-6.635M119.7-4.2a5.115,5.115,0,0,0,.931,3.195A2.927,2.927,0,0,0,123.057.2a2.9,2.9,0,0,0,2.421-1.22,5.106,5.106,0,0,0,.933-3.182,4.9,4.9,0,0,0-.952-3.118,2.96,2.96,0,0,0-2.4-1.207,2.932,2.932,0,0,0-2.425,1.2A4.932,4.932,0,0,0,119.7-4.2" transform="translate(20.56 21.595)" fill="#f5eee9"/>
      <path id="Caminho_124" data-name="Caminho 124" d="M70.105,5.077a8.505,8.505,0,0,1-4.522-1.1,3.214,3.214,0,0,1-1.789-2.74A2.481,2.481,0,0,1,64.36-.411a1.75,1.75,0,0,1,1.375-.674A6.184,6.184,0,0,1,68.1-.338a6.145,6.145,0,0,0,2.349.756,1.659,1.659,0,0,0,1.028-.31.909.909,0,0,0,.392-.747c0-.515-.813-1.1-2.444-1.765L69.1-2.528a10.919,10.919,0,0,1-3.824-2.345A4.267,4.267,0,0,1,64.254-7.81a5.087,5.087,0,0,1,1.805-3.976,6.662,6.662,0,0,1,4.569-1.589,7.919,7.919,0,0,1,4.226,1.069A3.033,3.033,0,0,1,76.59-9.777a2.121,2.121,0,0,1-.607,1.533,2,2,0,0,1-1.492.623,5.837,5.837,0,0,1-1.977-.623,5.882,5.882,0,0,0-2.123-.622,1.31,1.31,0,0,0-.834.249.788.788,0,0,0-.317.649q0,.721,2.018,1.5c.629.245,1.13.451,1.5.627a9.141,9.141,0,0,1,3.257,2.2,4.216,4.216,0,0,1,.969,2.8,5.341,5.341,0,0,1-1.949,4.217,7.248,7.248,0,0,1-4.927,1.692" transform="translate(56.077 21.595)" fill="#f5eee9"/>
      <path id="Caminho_125" data-name="Caminho 125" d="M.32-4.138a9.328,9.328,0,0,1,2.436-6.639,8.114,8.114,0,0,1,6.185-2.6,8.071,8.071,0,0,1,6.188,2.594,9.362,9.362,0,0,1,2.41,6.644,9.408,9.408,0,0,1-2.41,6.648,8.075,8.075,0,0,1-6.188,2.6A8.08,8.08,0,0,1,2.756,2.5,9.319,9.319,0,0,1,.32-4.138M5.587-4.2A5.116,5.116,0,0,0,6.52-1.007,2.922,2.922,0,0,0,8.95.2a2.9,2.9,0,0,0,2.42-1.22A5.1,5.1,0,0,0,12.3-4.2a4.886,4.886,0,0,0-.953-3.118,2.957,2.957,0,0,0-2.4-1.207,2.928,2.928,0,0,0-2.425,1.2A4.929,4.929,0,0,0,5.587-4.2" transform="translate(100.601 21.595)" fill="#f5eee9"/>
      <path id="Caminho_126" data-name="Caminho 126" d="M-56.73-27.8A4.94,4.94,0,0,1-54.9-29.05a7.148,7.148,0,0,1,2.539-.382,5.91,5.91,0,0,1,4.6,1.744,7.288,7.288,0,0,1,1.6,5.076V-15.2a5.12,5.12,0,0,1-.631,2.831,2.168,2.168,0,0,1-1.922.928,2.172,2.172,0,0,1-1.93-.928A5.1,5.1,0,0,1-51.27-15.2v-5.844a5.618,5.618,0,0,0-.643-3.084,2.376,2.376,0,0,0-2.108-.914,2.328,2.328,0,0,0-2.05.949,5.359,5.359,0,0,0-.658,2.989v5.9a5.1,5.1,0,0,1-.631,2.831,2.169,2.169,0,0,1-1.924.928A2.144,2.144,0,0,1-61.2-12.37a5.15,5.15,0,0,1-.622-2.831V-32.906a5.169,5.169,0,0,1,.622-2.843,2.147,2.147,0,0,1,1.917-.932,2.162,2.162,0,0,1,1.924.945,5.162,5.162,0,0,1,.631,2.83Z" transform="translate(144.192 37.841)" fill="#f5eee9"/>
      <path id="Caminho_127" data-name="Caminho 127" d="M-128.063,1.48V-8.908a5.1,5.1,0,0,1,.626-2.826,2.142,2.142,0,0,1,1.915-.919,2.339,2.339,0,0,1,1.367.412A3.385,3.385,0,0,1-123.092-11a4.936,4.936,0,0,1,1.89-1.336,7.277,7.277,0,0,1,2.6-.412,5.923,5.923,0,0,1,4.607,1.744A7.3,7.3,0,0,1-112.4-5.932V1.48a5.065,5.065,0,0,1-.632,2.831,2.159,2.159,0,0,1-1.92.927,2.173,2.173,0,0,1-1.93-.927,5.124,5.124,0,0,1-.628-2.831V-4.365a5.637,5.637,0,0,0-.639-3.083,2.373,2.373,0,0,0-2.1-.915,2.32,2.32,0,0,0-2.053.949,5.321,5.321,0,0,0-.664,2.989v5.9A5.088,5.088,0,0,1-123.6,4.31a2.167,2.167,0,0,1-1.924.927,2.139,2.139,0,0,1-1.915-.927,5.141,5.141,0,0,1-.626-2.831" transform="translate(190.656 21.16)" fill="#f5eee9"/>
      <path id="Caminho_128" data-name="Caminho 128" d="M-154.352,1.708a5.189,5.189,0,0,1-.616,2.839,2.119,2.119,0,0,1-1.894.919,2.163,2.163,0,0,1-1.921-.927,5.1,5.1,0,0,1-.631-2.831V-8.681a5.1,5.1,0,0,1,.626-2.826,2.152,2.152,0,0,1,1.926-.919,2.11,2.11,0,0,1,1.894.919,5.15,5.15,0,0,1,.616,2.826Z" transform="translate(212.647 20.932)" fill="#f5eee9"/>
      <path id="Caminho_129" data-name="Caminho 129" d="M-160.754-33.688a2.917,2.917,0,0,1,.868-2.113,2.839,2.839,0,0,1,2.084-.88,2.777,2.777,0,0,1,2.053.88,2.946,2.946,0,0,1,.851,2.113,2.918,2.918,0,0,1-.849,2.117,2.773,2.773,0,0,1-2.055.863,2.856,2.856,0,0,1-2.1-.863,2.922,2.922,0,0,1-.853-2.117" transform="translate(213.587 37.841)" fill="#f5eee9"/>
      <path id="Caminho_130" data-name="Caminho 130" d="M-202.5,1.48V-8.908a5.1,5.1,0,0,1,.627-2.826,2.145,2.145,0,0,1,1.917-.919,2.355,2.355,0,0,1,1.368.412A3.378,3.378,0,0,1-197.527-11a5.64,5.64,0,0,1,1.67-1.306,4,4,0,0,1,1.78-.443,2.5,2.5,0,0,1,1.826.76,2.456,2.456,0,0,1,.766,1.8c0,1.031-.938,1.9-2.81,2.59-.675.248-1.175.45-1.512.61a2.825,2.825,0,0,0-1.28,1.035A4.633,4.633,0,0,0-197.4-3.9V1.48a5.1,5.1,0,0,1-.631,2.831,2.164,2.164,0,0,1-1.921.927,2.142,2.142,0,0,1-1.917-.927A5.141,5.141,0,0,1-202.5,1.48" transform="translate(242.868 21.16)" fill="#f5eee9"/>
      <path id="Caminho_131" data-name="Caminho 131" d="M-326.6-13.647a10.26,10.26,0,0,0,5.151-1.189q2.088-1.2,2.088-2.843A2.3,2.3,0,0,0-320-19.294a1.918,1.918,0,0,0-1.451-.7,7.845,7.845,0,0,0-2.078.6,8.17,8.17,0,0,1-2.81.6,5.207,5.207,0,0,1-4.233-1.894,8.666,8.666,0,0,1-1.57-5.145c-.561-9.018,5.324-9.457,5.324-9.457a4.953,4.953,0,0,1,3.015.271,7,7,0,0,0,2.024.648,2.049,2.049,0,0,0,1.562-.721,2.411,2.411,0,0,0,.662-1.679q0-1.488-1.993-2.611a9.846,9.846,0,0,0-4.884-1.121c-3.272,0-5.157.764-7.809,3.453-2.2,2.233-3.655,6.626-3.456,10.885,0,0-.46,12.524,11.106,12.524" transform="translate(337.72 40.509)" fill="#f5eee9"/>
    </g>
    <g id="Componente_3_40" data-name="Componente 3 – 40" transform="translate(917.097 1325.375)">
      <path id="Caminho_132" data-name="Caminho 132" d="M208.789,69.92,195.509,47.374h-7.04V80.19h6.64V57.644l13.37,22.546h6.95V47.374h-6.64Z" transform="translate(-156.874 -47.374)" fill="#f5eee9"/>
      <rect id="Retângulo_45" data-name="Retângulo 45" width="6.73" height="32.816" transform="translate(89.276 0)" fill="#f5eee9"/>
      <path id="Caminho_133" data-name="Caminho 133" d="M425.671,47.374l-6.419,24.974-6.507-24.974H402.8V80.19H409.1V53.723l6.729,26.467h6.886l6.638-26.467V80.19h6.309V47.374Z" transform="translate(-303.184 -47.374)" fill="#f5eee9"/>
      <path id="Caminho_134" data-name="Caminho 134" d="M105.268,47.374l-.9.025a16.41,16.41,0,0,0,0,32.765l.9.025H117.8v-5.7H104.819c-8.631,0-9.2-8.251-9.2-8.251h21.359l-.01-5.769H95.621s.668-7.323,9.2-7.323H117.8v-5.77h-12.53Z" transform="translate(-88.912 -47.374)" fill="#f5eee9"/>
      <path id="Caminho_135" data-name="Caminho 135" d="M300.307,47.374l-.9.025A16.386,16.386,0,0,0,283.95,63.782V80.19h6.586v-14l.122.045H307.15l-.011-5.769h-16.48s.668-7.323,9.2-7.323h8.11v-5.77h-7.659Z" transform="translate(-222.054 -47.374)" fill="#f5eee9"/>
    </g>
    <g id="Componente_4_35" data-name="Componente 4 – 35" transform="translate(593.131 1410.458)">
      <g id="Grupo_158" data-name="Grupo 158">
        <path id="Caminho_136" data-name="Caminho 136" d="M126.818,101.2l-2.444-7.593q-.088-.214-.242-.214H124q-.155,0-.242.214l-4.9,16.483a.529.529,0,0,1-.506.4H115.5q-.286,0-.341-.2a.854.854,0,0,1,.055-.506l5.754-18.413a5.161,5.161,0,0,1,1.078-1.854,1.783,1.783,0,0,1,1.232-.475h1.3a2.132,2.132,0,0,1,1.408.475A4.748,4.748,0,0,1,127.1,91.37l4.373,13.284,4.373-13.284a4.748,4.748,0,0,1,1.122-1.854,2.132,2.132,0,0,1,1.408-.475h1.3a1.783,1.783,0,0,1,1.231.475,5.16,5.16,0,0,1,1.078,1.854l5.754,18.413a.854.854,0,0,1,.055.506q-.055.2-.341.2h-2.859a.528.528,0,0,1-.506-.4l-4.9-16.483q-.088-.214-.242-.214h-.132q-.154,0-.242.214l-2.533,7.593-2.806,8.139a1.757,1.757,0,0,1-1.763,1.149,1.869,1.869,0,0,1-1.821-1.141Z" transform="translate(-115.136 -89.042)" fill="#f5eee9"/>
        <path id="Caminho_137" data-name="Caminho 137" d="M447.17,98.33l2.445,7.593q.088.214.242.215h.132q.154,0,.242-.215l4.9-16.483a.529.529,0,0,1,.506-.4h2.86q.286,0,.341.2a.851.851,0,0,1-.055.506l-5.754,18.413a5.158,5.158,0,0,1-1.078,1.854,1.784,1.784,0,0,1-1.232.475h-1.3a2.13,2.13,0,0,1-1.407-.475,4.747,4.747,0,0,1-1.122-1.854l-4.373-13.284-4.373,13.284a4.75,4.75,0,0,1-1.122,1.854,2.131,2.131,0,0,1-1.408.475h-1.3a1.784,1.784,0,0,1-1.232-.475A5.162,5.162,0,0,1,432,108.16L426.25,89.747a.851.851,0,0,1-.055-.506q.054-.2.341-.2h2.86a.528.528,0,0,1,.506.4l4.9,16.483q.088.214.242.215h.132q.154,0,.242-.215l2.533-7.593,2.806-8.139a1.757,1.757,0,0,1,1.763-1.149,1.869,1.869,0,0,1,1.821,1.141Z" transform="translate(-353.188 -89.042)" fill="#f5eee9"/>
        <path id="Caminho_138" data-name="Caminho 138" d="M586.255,89.042q.553,0,.554.674v2.516q0,.674-.554.674h-9.71a5.111,5.111,0,0,0-1.552.2,2.009,2.009,0,0,0-.987.674,2.865,2.865,0,0,0-.518,1.286,17.246,17.246,0,0,0-.144,2.4v.306h12.851q.53,0,.53.674v2.42q0,.675-.53.674H573.343v.521a17.236,17.236,0,0,0,.144,2.4,2.862,2.862,0,0,0,.518,1.287,2,2,0,0,0,.987.674,5.1,5.1,0,0,0,1.552.2h9.71q.553,0,.554.674v2.516q0,.674-.554.674h-9.782a9.805,9.805,0,0,1-3.106-.429,4.525,4.525,0,0,1-2.083-1.394,6.072,6.072,0,0,1-1.18-2.512,16.219,16.219,0,0,1-.373-3.753V97.13a16.02,16.02,0,0,1,.373-3.738,6.069,6.069,0,0,1,1.18-2.5,4.637,4.637,0,0,1,2.083-1.409,9.514,9.514,0,0,1,3.106-.444Z" transform="translate(-463.057 -89.042)" fill="#f5eee9"/>
        <path id="Caminho_139" data-name="Caminho 139" d="M670.5,89.042q.553,0,.554.674v2.516q0,.674-.554.674h-9.71a5.109,5.109,0,0,0-1.552.2,2.01,2.01,0,0,0-.987.674,2.866,2.866,0,0,0-.518,1.286,17.246,17.246,0,0,0-.144,2.4v.306h12.927q.529,0,.53.674v2.42q0,.675-.53.674H657.591v.521a17.236,17.236,0,0,0,.144,2.4,2.864,2.864,0,0,0,.518,1.287,2,2,0,0,0,.987.674,5.094,5.094,0,0,0,1.552.2h9.71q.553,0,.554.674v2.516q0,.674-.554.674h-9.782a9.8,9.8,0,0,1-3.106-.429,4.526,4.526,0,0,1-2.082-1.394,6.07,6.07,0,0,1-1.18-2.512,16.225,16.225,0,0,1-.373-3.753V97.13a16.025,16.025,0,0,1,.373-3.738,6.068,6.068,0,0,1,1.18-2.5,4.638,4.638,0,0,1,2.082-1.409,9.513,9.513,0,0,1,3.106-.444Z" transform="translate(-527.535 -89.042)" fill="#f5eee9"/>
        <path id="Caminho_140" data-name="Caminho 140" d="M267.431,106.189l-1.552,3.9a.546.546,0,0,1-.525.4h-2.966q-.3,0-.354-.2a.824.824,0,0,1,.057-.506l7.484-18.413a5.13,5.13,0,0,1,1.118-1.854,1.889,1.889,0,0,1,1.278-.475h1.346a2.264,2.264,0,0,1,1.46.475,4.727,4.727,0,0,1,1.164,1.854l7.553,18.413a.835.835,0,0,1,.057.506q-.058.2-.331.2h-2.9a.521.521,0,0,1-.525-.4l-1.556-3.8L275.475,99.5l-2.363-5.892q-.092-.214-.251-.214h-.137c-.107,0-.191.072-.251.214l-2.242,5.621Z" transform="translate(-227.549 -89.042)" fill="#f5eee9"/>
        <path id="Caminho_141" data-name="Caminho 141" d="M297.544,150.135l-3.052-7.44a2.093,2.093,0,0,0-.538-.84,1.14,1.14,0,0,0-.732-.242h-.544a.989.989,0,0,0-.665.247,2.249,2.249,0,0,0-.513.833l-3.022,7.434a.559.559,0,0,0-.031.353.346.346,0,0,0,.362.246h1.2a.447.447,0,0,0,.424-.3l.627-1.575,1.13-2.809.823-2.062.871,2.171L295,148.891l.628,1.533a.43.43,0,0,0,.423.3h1.17a.343.343,0,0,0,.353-.246A.547.547,0,0,0,297.544,150.135Z" transform="translate(-247.766 -129.281)" fill="#f5eee9"/>
        <path id="Caminho_142" data-name="Caminho 142" d="M362.893,89.042q.529,0,.529.674v12.816a11.02,11.02,0,0,0,.157,2.037,3.059,3.059,0,0,0,.518,1.287,1.938,1.938,0,0,0,.975.674,5.1,5.1,0,0,0,1.553.2h9.75q.53,0,.53.674v2.411q0,.674-.53.674H366.48a9.8,9.8,0,0,1-3.105-.429,4.527,4.527,0,0,1-2.083-1.394,6.073,6.073,0,0,1-1.18-2.512,16.226,16.226,0,0,1-.373-3.753V89.716q0-.674.554-.674Z" transform="translate(-302.341 -89.042)" fill="#f5eee9"/>
      </g>
      <path id="Caminho_143" data-name="Caminho 143" d="M714.656,202.327c-.05-.528-1.851-.485-2.056-.479-1.345.043-1.354.361-1.357.468a21.638,21.638,0,0,0,.172,2.645c.042.4.086.805.118,1.2l.528,7.813c.051.3.135.8.671.8h.009a.689.689,0,0,0,.753-.522,17.938,17.938,0,0,0,.23-1.821l.933-10.082v-.03Z" transform="translate(-571.36 -175.383)" fill="#f5eee9"/>
      <ellipse id="Elipse_6" data-name="Elipse 6" cx="1.381" cy="1.38" rx="1.381" ry="1.38" transform="translate(140.041 40.215)" fill="#f5eee9"/>
      <path id="Caminho_144" data-name="Caminho 144" d="M531.633,202.582q.444,0,.445.508v15.141q0,.508-.445.508H529.45q-.465,0-.465-.508V203.09q0-.507.465-.508Z" transform="translate(-431.871 -175.947)" fill="#f5eee9"/>
      <path id="Caminho_145" data-name="Caminho 145" d="M651.445,202.582q.445,0,.445.508v2.193q0,.507-.445.507H641.318a.941.941,0,0,0-.829.346,1.625,1.625,0,0,0-.243.946v.785q0,1.292,1.051,1.292h7.58a3.315,3.315,0,0,1,2.648,1.027,4.365,4.365,0,0,1,.889,2.943v1.847a4.106,4.106,0,0,1-.869,2.724,3.336,3.336,0,0,1-2.709,1.038h-11.2q-.465,0-.465-.508v-2.192q0-.508.465-.508h10.612a.941.941,0,0,0,.829-.346,1.624,1.624,0,0,0,.242-.946v-.946q0-1.292-1.051-1.292h-7.58a3.312,3.312,0,0,1-2.648-1.027,4.361,4.361,0,0,1-.889-2.943v-1.685a4.1,4.1,0,0,1,.869-2.724,3.335,3.335,0,0,1,2.709-1.039Z" transform="translate(-514.658 -175.947)" fill="#f5eee9"/>
      <g id="Grupo_159" data-name="Grupo 159" transform="translate(79.061 26.671)">
        <path id="Caminho_146" data-name="Caminho 146" d="M471.133,210.594l7.252,7.629a.458.458,0,0,1,.076.356c-.017.161-.151.241-.4.241h-2.942a1.04,1.04,0,0,1-.454-.069.853.853,0,0,1-.252-.23l-6.981-7.493a.619.619,0,0,1,.011-.856l7.005-7.138a.86.86,0,0,1,.253-.23,1.119,1.119,0,0,1,.479-.069h2.841q.327,0,.391.2a.364.364,0,0,1-.063.356Z" transform="translate(-463.694 -202.735)" fill="#f5eee9"/>
        <path id="Caminho_147" data-name="Caminho 147" d="M455.385,212.019v6.3q0,.506-.479.506h-2.351a.445.445,0,0,1-.5-.506V203.241a.445.445,0,0,1,.5-.506h2.351q.479,0,.479.506v8.778Z" transform="translate(-452.054 -202.735)" fill="#f5eee9"/>
      </g>
      <path id="Caminho_148" data-name="Caminho 148" d="M567.712,202.772a8.338,8.338,0,0,1,2.67.379,4.231,4.231,0,0,1,1.825,1.171,4.912,4.912,0,0,1,1.047,2.02,11.083,11.083,0,0,1,.337,2.9v3.122a11.077,11.077,0,0,1-.337,2.9,4.909,4.909,0,0,1-1.047,2.02,4.227,4.227,0,0,1-1.825,1.171,8.338,8.338,0,0,1-2.67.379h-8.99q-.576,0-.576-.688V203.461q0-.689.576-.689Zm-6.627,12.579c0,.2.083.3.25.3h6.3a4.725,4.725,0,0,0,1.421-.184,2,2,0,0,0,.932-.6,2.5,2.5,0,0,0,.509-1.1,7.959,7.959,0,0,0,.153-1.7v-2.525a7.961,7.961,0,0,0-.153-1.7,2.493,2.493,0,0,0-.509-1.1,2,2,0,0,0-.932-.6,4.742,4.742,0,0,0-1.421-.184h-6.3c-.167,0-.25.107-.25.322Z" transform="translate(-454.189 -176.092)" fill="#f5eee9"/>
    </g>
    <g id="Componente_5_36" data-name="Componente 5 – 36" transform="translate(712.693 1335.044)">
      <path id="Caminho_149" data-name="Caminho 149" d="M127.559,102.165l-2.6-8.2q-.094-.231-.258-.231h-.14q-.164,0-.257.231L119.1,111.76a.563.563,0,0,1-.538.43h-3.041q-.3,0-.363-.215a.934.934,0,0,1,.059-.546l6.119-19.874a5.587,5.587,0,0,1,1.146-2,1.881,1.881,0,0,1,1.31-.512h1.38a2.245,2.245,0,0,1,1.5.512,5.136,5.136,0,0,1,1.193,2l4.65,14.338,4.65-14.338a5.136,5.136,0,0,1,1.193-2,2.245,2.245,0,0,1,1.5-.512h1.38a1.881,1.881,0,0,1,1.31.512,5.588,5.588,0,0,1,1.146,2l6.119,19.874a.934.934,0,0,1,.059.546q-.058.215-.363.215h-3.041a.563.563,0,0,1-.538-.43l-5.207-17.79q-.093-.231-.257-.231h-.14q-.164,0-.258.231l-2.694,8.2-2.984,8.785a1.873,1.873,0,0,1-1.875,1.24,1.991,1.991,0,0,1-1.937-1.231Z" transform="translate(-115.136 -89.042)" fill="#f5eee9"/>
      <path id="Caminho_150" data-name="Caminho 150" d="M448.5,99.067l2.6,8.2q.094.231.257.232h.14q.164,0,.257-.232l5.207-17.79a.564.564,0,0,1,.538-.43h3.041q.3,0,.362.215a.931.931,0,0,1-.059.546l-6.119,19.874a5.583,5.583,0,0,1-1.146,2,1.881,1.881,0,0,1-1.31.512h-1.38a2.244,2.244,0,0,1-1.5-.512,5.135,5.135,0,0,1-1.193-2l-4.65-14.338-4.65,14.338a5.135,5.135,0,0,1-1.193,2,2.245,2.245,0,0,1-1.5.512h-1.38a1.881,1.881,0,0,1-1.31-.512,5.588,5.588,0,0,1-1.146-2L426.255,89.8a.931.931,0,0,1-.059-.546q.058-.215.362-.215H429.6a.563.563,0,0,1,.538.43l5.207,17.79q.093.231.257.232h.141q.164,0,.257-.232l2.694-8.2,2.984-8.785a1.873,1.873,0,0,1,1.875-1.24,1.992,1.992,0,0,1,1.937,1.231Z" transform="translate(-348.557 -89.042)" fill="#f5eee9"/>
      <path id="Caminho_151" data-name="Caminho 151" d="M587.3,89.042q.589,0,.589.728v2.716q0,.728-.589.728H576.977a5.359,5.359,0,0,0-1.651.215,2.137,2.137,0,0,0-1.05.728,3.118,3.118,0,0,0-.55,1.389,18.9,18.9,0,0,0-.154,2.592v.331h13.667q.563,0,.563.727v2.612q0,.728-.563.728H573.572v.562a18.885,18.885,0,0,0,.154,2.592,3.116,3.116,0,0,0,.55,1.389,2.131,2.131,0,0,0,1.05.727,5.343,5.343,0,0,0,1.651.215H587.3q.589,0,.589.728v2.716q0,.728-.589.727H576.9a10.285,10.285,0,0,1-3.3-.463,4.809,4.809,0,0,1-2.215-1.5,6.594,6.594,0,0,1-1.254-2.712,17.76,17.76,0,0,1-.4-4.051V97.772a17.542,17.542,0,0,1,.4-4.034,6.591,6.591,0,0,1,1.254-2.7,4.929,4.929,0,0,1,2.215-1.521,9.98,9.98,0,0,1,3.3-.48Z" transform="translate(-456.289 -89.042)" fill="#f5eee9"/>
      <path id="Caminho_152" data-name="Caminho 152" d="M671.552,89.042q.589,0,.589.728v2.716q0,.728-.589.728H661.225a5.359,5.359,0,0,0-1.651.215,2.138,2.138,0,0,0-1.05.728,3.12,3.12,0,0,0-.55,1.389,18.868,18.868,0,0,0-.153,2.592v.331h13.747q.563,0,.563.727v2.612q0,.728-.563.728H657.82v.562a18.858,18.858,0,0,0,.153,2.592,3.117,3.117,0,0,0,.55,1.389,2.132,2.132,0,0,0,1.05.727,5.343,5.343,0,0,0,1.651.215h10.327q.589,0,.589.728v2.716q0,.728-.589.727h-10.4a10.286,10.286,0,0,1-3.3-.463,4.809,4.809,0,0,1-2.214-1.5,6.594,6.594,0,0,1-1.255-2.712,17.76,17.76,0,0,1-.4-4.051V97.772a17.542,17.542,0,0,1,.4-4.034,6.591,6.591,0,0,1,1.255-2.7,4.929,4.929,0,0,1,2.214-1.521,9.982,9.982,0,0,1,3.3-.48Z" transform="translate(-519.513 -89.042)" fill="#f5eee9"/>
      <path id="Caminho_153" data-name="Caminho 153" d="M267.775,107.55l-1.651,4.21a.581.581,0,0,1-.558.43h-3.154q-.316,0-.376-.215a.9.9,0,0,1,.061-.546l7.959-19.874a5.55,5.55,0,0,1,1.189-2,1.991,1.991,0,0,1,1.359-.512h1.432a2.384,2.384,0,0,1,1.553.512,5.11,5.11,0,0,1,1.238,2l8.032,19.874a.914.914,0,0,1,.061.546q-.061.215-.352.215h-3.082a.555.555,0,0,1-.558-.43l-1.655-4.1-2.942-7.333-2.513-6.36q-.1-.231-.267-.231H273.4q-.171,0-.267.231l-2.385,6.067Z" transform="translate(-225.362 -89.042)" fill="#f5eee9"/>
      <path id="Caminho_154" data-name="Caminho 154" d="M298.122,150.811l-3.245-8.03a2.26,2.26,0,0,0-.572-.906,1.2,1.2,0,0,0-.779-.261h-.578a1.042,1.042,0,0,0-.708.267,2.433,2.433,0,0,0-.545.9l-3.213,8.024a.612.612,0,0,0-.033.381.369.369,0,0,0,.385.266h1.273a.476.476,0,0,0,.451-.328l.667-1.7,1.2-3.032.875-2.225.926,2.343,1.188,2.961.668,1.655a.458.458,0,0,0,.45.326h1.244a.365.365,0,0,0,.376-.265A.6.6,0,0,0,298.122,150.811Z" transform="translate(-245.186 -128.302)" fill="#f5eee9"/>
      <path id="Caminho_155" data-name="Caminho 155" d="M363.093,89.042q.562,0,.563.728V103.6a12.071,12.071,0,0,0,.167,2.2,3.33,3.33,0,0,0,.551,1.389,2.06,2.06,0,0,0,1.037.727,5.352,5.352,0,0,0,1.651.215H377.43q.563,0,.563.728v2.6q0,.728-.563.727H366.907a10.283,10.283,0,0,1-3.3-.463,4.81,4.81,0,0,1-2.215-1.5,6.6,6.6,0,0,1-1.255-2.712,17.766,17.766,0,0,1-.4-4.051V89.77q0-.727.589-.728Z" transform="translate(-298.699 -89.042)" fill="#f5eee9"/>
    </g>
  </g>
</svg>
