<?xml version="1.0" encoding="utf-8"?><svg id="Componente_5_65" data-name="Componente 5 – 65" xmlns="http://www.w3.org/2000/svg" width="85.362" height="12.946" viewBox="0 0 85.362 12.946">
  <path id="Caminho_149" data-name="Caminho 149" d="M122.084,96.381,120.63,91.8q-.053-.129-.144-.129h-.078q-.092,0-.144.129l-2.912,9.95a.315.315,0,0,1-.3.24h-1.7q-.17,0-.2-.12a.522.522,0,0,1,.033-.305L118.6,90.448a3.125,3.125,0,0,1,.641-1.119,1.052,1.052,0,0,1,.732-.287h.772a1.256,1.256,0,0,1,.837.287,2.873,2.873,0,0,1,.667,1.119l2.6,8.019,2.6-8.019a2.873,2.873,0,0,1,.667-1.119,1.256,1.256,0,0,1,.837-.287h.772a1.052,1.052,0,0,1,.732.287,3.125,3.125,0,0,1,.641,1.119l3.422,11.115a.522.522,0,0,1,.033.305q-.033.12-.2.12h-1.7a.315.315,0,0,1-.3-.24l-2.912-9.95q-.052-.129-.144-.129h-.078q-.092,0-.144.129l-1.507,4.584-1.669,4.913a1.048,1.048,0,0,1-1.049.693,1.114,1.114,0,0,1-1.083-.689Z" transform="translate(-115.136 -89.042)" fill="#f5eee9"/>
  <path id="Caminho_150" data-name="Caminho 150" d="M438.662,94.649l1.454,4.584q.053.129.144.13h.079q.092,0,.144-.13l2.912-9.95a.315.315,0,0,1,.3-.24h1.7q.17,0,.2.12a.521.521,0,0,1-.033.305l-3.422,11.115a3.122,3.122,0,0,1-.641,1.119,1.052,1.052,0,0,1-.733.287H440a1.255,1.255,0,0,1-.837-.287,2.872,2.872,0,0,1-.667-1.119l-2.6-8.019-2.6,8.019a2.872,2.872,0,0,1-.667,1.119,1.255,1.255,0,0,1-.837.287h-.772a1.052,1.052,0,0,1-.733-.287,3.125,3.125,0,0,1-.641-1.119L426.22,89.467a.521.521,0,0,1-.033-.305q.032-.12.2-.12h1.7a.315.315,0,0,1,.3.24l2.912,9.95q.052.129.144.13h.079q.092,0,.144-.13l1.507-4.584,1.669-4.913a1.048,1.048,0,0,1,1.049-.693,1.114,1.114,0,0,1,1.083.689Z" transform="translate(-382.766 -89.042)" fill="#f5eee9"/>
  <path id="Caminho_151" data-name="Caminho 151" d="M579.559,89.042q.329,0,.329.407v1.519q0,.407-.329.407h-5.775a3,3,0,0,0-.923.12,1.2,1.2,0,0,0-.587.407,1.744,1.744,0,0,0-.308.777,10.566,10.566,0,0,0-.086,1.45v.185h7.644q.315,0,.315.407v1.461q0,.407-.315.407H571.88V96.9a10.56,10.56,0,0,0,.086,1.45,1.743,1.743,0,0,0,.308.777,1.192,1.192,0,0,0,.587.407,2.989,2.989,0,0,0,.923.12h5.775q.329,0,.329.407v1.519q0,.407-.329.407h-5.818a5.752,5.752,0,0,1-1.847-.259,2.69,2.69,0,0,1-1.239-.841,3.689,3.689,0,0,1-.7-1.517,9.934,9.934,0,0,1-.222-2.266V93.925a9.812,9.812,0,0,1,.222-2.256,3.687,3.687,0,0,1,.7-1.507,2.757,2.757,0,0,1,1.239-.851,5.582,5.582,0,0,1,1.847-.268Z" transform="translate(-506.285 -89.042)" fill="#f5eee9"/>
  <path id="Caminho_152" data-name="Caminho 152" d="M663.807,89.042q.329,0,.329.407v1.519q0,.407-.329.407h-5.776a3,3,0,0,0-.923.12,1.2,1.2,0,0,0-.587.407,1.744,1.744,0,0,0-.308.777,10.557,10.557,0,0,0-.086,1.45v.185h7.688q.315,0,.315.407v1.461q0,.407-.315.407h-7.688V96.9a10.552,10.552,0,0,0,.086,1.45,1.743,1.743,0,0,0,.308.777,1.192,1.192,0,0,0,.587.407,2.989,2.989,0,0,0,.923.12h5.776q.329,0,.329.407v1.519q0,.407-.329.407h-5.818a5.752,5.752,0,0,1-1.847-.259,2.689,2.689,0,0,1-1.238-.841,3.688,3.688,0,0,1-.7-1.517,9.934,9.934,0,0,1-.222-2.266V93.925a9.812,9.812,0,0,1,.222-2.256,3.686,3.686,0,0,1,.7-1.507,2.756,2.756,0,0,1,1.238-.851,5.582,5.582,0,0,1,1.847-.268Z" transform="translate(-578.775 -89.042)" fill="#f5eee9"/>
  <path id="Caminho_153" data-name="Caminho 153" d="M265.236,99.393l-.923,2.355a.325.325,0,0,1-.312.24h-1.764q-.177,0-.21-.12a.5.5,0,0,1,.034-.305l4.451-11.115a3.1,3.1,0,0,1,.665-1.119,1.114,1.114,0,0,1,.76-.287h.8a1.334,1.334,0,0,1,.868.287,2.858,2.858,0,0,1,.692,1.119l4.492,11.115a.511.511,0,0,1,.034.305c-.023.08-.088.12-.2.12H272.9a.31.31,0,0,1-.312-.24l-.925-2.292-1.646-4.1L268.615,91.8q-.055-.129-.149-.129h-.081q-.1,0-.149.129L266.9,95.191Z" transform="translate(-241.516 -89.042)" fill="#f5eee9"/>
  <path id="Caminho_154" data-name="Caminho 154" d="M293.851,146.757l-1.815-4.491a1.264,1.264,0,0,0-.32-.507.672.672,0,0,0-.436-.146h-.323a.583.583,0,0,0-.4.149,1.361,1.361,0,0,0-.3.5l-1.8,4.488a.342.342,0,0,0-.019.213.206.206,0,0,0,.215.149h.712a.266.266,0,0,0,.252-.184l.373-.951.672-1.7.489-1.244.518,1.31.664,1.656.374.925a.256.256,0,0,0,.252.183h.7a.2.2,0,0,0,.21-.148A.335.335,0,0,0,293.851,146.757Z" transform="translate(-264.245 -134.168)" fill="#f5eee9"/>
  <path id="Caminho_155" data-name="Caminho 155" d="M361.615,89.042q.314,0,.315.407v7.736a6.75,6.75,0,0,0,.093,1.23,1.862,1.862,0,0,0,.308.777,1.152,1.152,0,0,0,.58.407,2.993,2.993,0,0,0,.924.12h5.8q.315,0,.315.407v1.455q0,.407-.315.407h-5.885a5.751,5.751,0,0,1-1.847-.259,2.69,2.69,0,0,1-1.239-.841,3.69,3.69,0,0,1-.7-1.517,9.937,9.937,0,0,1-.222-2.266V89.449q0-.407.329-.407Z" transform="translate(-325.6 -89.042)" fill="#f5eee9"/>
</svg>
