<svg xmlns="http://www.w3.org/2000/svg" width="349.049" height="57.041" viewBox="0 0 349.049 57.041">
  <g id="Grupo_27" data-name="Grupo 27" transform="translate(-4 -3.204)">
    <g id="Grupo_165" data-name="Grupo 165" transform="translate(-154.465 -235.991)">
      <g id="Grupo_163" data-name="Grupo 163" transform="translate(158.465 239.195)">
        <path id="Caminho_158" data-name="Caminho 158" d="M174.711,265.513a22.67,22.67,0,0,1-16.235-9.612,28.549,28.549,0,0,0,22.448,26.822,22.856,22.856,0,0,1-1.807-2.145A22.52,22.52,0,0,1,174.711,265.513Z" transform="translate(-158.457 -226.334)" fill="#2273e1"/>
        <path id="Caminho_159" data-name="Caminho 159" d="M184.607,257.169a22.566,22.566,0,0,1,15.794,9.007l.037.053A28.544,28.544,0,0,0,178,239.565,22.591,22.591,0,0,1,184.607,257.169Z" transform="translate(-143.425 -238.91)" fill="#2273e1"/>
        <path id="Caminho_160" data-name="Caminho 160" d="M162.325,273.02a22.524,22.524,0,0,0,12.394,5.354,22.619,22.619,0,0,1,24.928-20.919,22.591,22.591,0,0,0-6.6-17.6,28.524,28.524,0,0,0-34.557,28.912A22.593,22.593,0,0,0,162.325,273.02Z" transform="translate(-158.465 -239.195)" fill="#55af7d"/>
        <path id="Caminho_161" data-name="Caminho 161" d="M189.938,286.476a28.524,28.524,0,0,0,18.495-27.9l-.037-.053a22.566,22.566,0,0,0-15.794-9.007,22.622,22.622,0,0,1-24.928,20.919A22.52,22.52,0,0,0,172.08,285.5a22.856,22.856,0,0,0,1.807,2.145A28.4,28.4,0,0,0,189.938,286.476Z" transform="translate(-151.42 -231.253)" fill="#8e68ff"/>
        <path id="Caminho_162" data-name="Caminho 162" d="M176.725,253.9a22.566,22.566,0,0,0-9.076,16.581,22.622,22.622,0,0,0,24.928-20.919A22.54,22.54,0,0,0,176.725,253.9Z" transform="translate(-151.395 -231.307)" fill="#fff"/>
      </g>
      <g id="Grupo_164" data-name="Grupo 164" transform="translate(235.457 248.734)">
        <path id="Caminho_163" data-name="Caminho 163" d="M216.581,277.045a14.326,14.326,0,0,1-7.663-2.026,13.709,13.709,0,0,1-5.124-5.66,20.17,20.17,0,0,1,.021-16.82,13.753,13.753,0,0,1,5.258-5.7,15.312,15.312,0,0,1,8.042-2.049,14.5,14.5,0,0,1,8.755,2.54,11.519,11.519,0,0,1,4.524,6.994h-4.322a7.178,7.178,0,0,0-2.964-4.455,10.166,10.166,0,0,0-5.993-1.649,11.3,11.3,0,0,0-5.97,1.538,10.316,10.316,0,0,0-3.945,4.389,15.311,15.311,0,0,0-1.4,6.817,15.5,15.5,0,0,0,1.38,6.816,10.37,10.37,0,0,0,3.832,4.391,10.505,10.505,0,0,0,5.7,1.536q4.988,0,7.531-2.918a13.266,13.266,0,0,0,2.9-8h-9v-2.941h12.833v16.665h-3.432l-.311-5.124a12.408,12.408,0,0,1-4.143,4.187A12.561,12.561,0,0,1,216.581,277.045Z" transform="translate(-201.968 -244.429)" fill="#fff"/>
        <path id="Caminho_164" data-name="Caminho 164" d="M221.075,272.557v-22.1h3.387l.311,4.232a8.005,8.005,0,0,1,3.12-3.474,9.66,9.66,0,0,1,5.168-1.292v3.92h-1.025a9.257,9.257,0,0,0-3.61.69,5.486,5.486,0,0,0-2.628,2.34,8.906,8.906,0,0,0-.98,4.545v11.139Z" transform="translate(-187.259 -240.476)" fill="#fff"/>
        <path id="Caminho_165" data-name="Caminho 165" d="M249.261,250.225v22.1h-3.386l-.223-3.964a8.023,8.023,0,0,1-3.074,3.3,8.65,8.65,0,0,1-4.545,1.2,8.371,8.371,0,0,1-6.26-2.384q-2.339-2.381-2.34-7.329V250.225h3.743v12.52q0,6.908,5.7,6.908a6.161,6.161,0,0,0,4.745-2.072,8.439,8.439,0,0,0,1.9-5.9V250.225Z" transform="translate(-180.824 -240.243)" fill="#fff"/>
        <path id="Caminho_166" data-name="Caminho 166" d="M243.608,282.36v-31.9h3.386l.356,3.653a10.445,10.445,0,0,1,3.053-2.9,9.089,9.089,0,0,1,5.058-1.292,10.7,10.7,0,0,1,5.747,1.515,10.363,10.363,0,0,1,3.81,4.143,12.814,12.814,0,0,1,1.357,5.971,12.679,12.679,0,0,1-1.357,5.948,10.189,10.189,0,0,1-3.833,4.1,10.948,10.948,0,0,1-5.77,1.492,10.23,10.23,0,0,1-4.833-1.113,7.71,7.71,0,0,1-3.232-3.118v13.5Zm11.406-12.521a7.148,7.148,0,0,0,6.594-3.964,10.216,10.216,0,0,0,0-8.734,7.384,7.384,0,0,0-2.674-2.918,7.4,7.4,0,0,0-10.514,2.918,10.216,10.216,0,0,0,0,8.734,7.143,7.143,0,0,0,6.594,3.964Z" transform="translate(-169.913 -240.476)" fill="#fff"/>
        <path id="Caminho_167" data-name="Caminho 167" d="M269.391,273.092a11.112,11.112,0,0,1-5.614-1.425,10.292,10.292,0,0,1-3.943-4.033,12.408,12.408,0,0,1-1.448-6.127,12.281,12.281,0,0,1,1.469-6.125,10.428,10.428,0,0,1,3.989-4.033,11.236,11.236,0,0,1,5.637-1.425,11.121,11.121,0,0,1,5.614,1.425,10.328,10.328,0,0,1,3.943,4.033,12.426,12.426,0,0,1,1.448,6.125,12.264,12.264,0,0,1-1.471,6.127,10.412,10.412,0,0,1-3.987,4.033A11.235,11.235,0,0,1,269.391,273.092Zm0-3.207a7.113,7.113,0,0,0,3.564-.936,7,7,0,0,0,2.674-2.807,9.55,9.55,0,0,0,1.025-4.635,9.714,9.714,0,0,0-1-4.633A6.829,6.829,0,0,0,273,254.066a7.037,7.037,0,0,0-3.52-.936,7.115,7.115,0,0,0-3.566.936,6.97,6.97,0,0,0-2.672,2.807,10.991,10.991,0,0,0,0,9.268,7.03,7.03,0,0,0,2.651,2.807A6.9,6.9,0,0,0,269.391,269.885Z" transform="translate(-158.537 -240.476)" fill="#fff"/>
        <path id="Caminho_168" data-name="Caminho 168" d="M273.441,276.278V245.089h4.366l11.228,21.744,11.139-21.744h4.412v31.189h-3.743V251.772l-10.426,20.05H287.61l-10.426-20.006v24.462Z" transform="translate(-146.947 -244.197)" fill="#fff"/>
        <path id="Caminho_169" data-name="Caminho 169" d="M301.855,273.092a10,10,0,0,1-4.589-.936,6.345,6.345,0,0,1-2.718-2.5,6.694,6.694,0,0,1-.89-3.386,6,6,0,0,1,2.584-5.212,12,12,0,0,1,7.04-1.828h5.97v-.267a5.893,5.893,0,0,0-1.515-4.387,5.525,5.525,0,0,0-4.055-1.494,6.463,6.463,0,0,0-3.764,1.092,4.779,4.779,0,0,0-1.982,3.186H294.1a7.1,7.1,0,0,1,1.626-4.055,9.074,9.074,0,0,1,3.5-2.517,11.474,11.474,0,0,1,4.455-.869q4.635,0,6.973,2.472a9.169,9.169,0,0,1,2.34,6.571v13.59h-3.341l-.223-3.964a8.759,8.759,0,0,1-2.74,3.184A8.045,8.045,0,0,1,301.855,273.092Zm.579-3.163a6.1,6.1,0,0,0,3.678-1.115,7.1,7.1,0,0,0,2.338-2.9,9.019,9.019,0,0,0,.8-3.743v-.044h-5.658q-3.3,0-4.656,1.136a3.543,3.543,0,0,0-1.359,2.83,3.424,3.424,0,0,0,1.271,2.784A5.484,5.484,0,0,0,302.433,269.929Z" transform="translate(-131.385 -240.476)" fill="#fff"/>
        <path id="Caminho_170" data-name="Caminho 170" d="M307.251,276.666V244.585h3.743v32.081Z" transform="translate(-120.92 -244.585)" fill="#fff"/>
        <path id="Caminho_171" data-name="Caminho 171" d="M317.664,272.325l-6.46-22.1h3.741l4.679,17.332,5.168-17.332h4.233l5.214,17.332,4.633-17.332h3.787l-6.462,22.1h-3.832L326.932,254.1,321.5,272.325Z" transform="translate(-117.877 -240.243)" fill="#fff"/>
        <path id="Caminho_172" data-name="Caminho 172" d="M340.68,273.092a10.835,10.835,0,0,1-5.614-1.448,10.262,10.262,0,0,1-3.853-4.033,12.6,12.6,0,0,1-1.405-6.1,12.808,12.808,0,0,1,1.382-6.081,10.029,10.029,0,0,1,3.855-4.055,11.122,11.122,0,0,1,5.725-1.448,10.333,10.333,0,0,1,5.547,1.448,9.8,9.8,0,0,1,3.587,3.809,10.718,10.718,0,0,1,1.248,5.081c0,.327-.007.653-.023.979s-.021.7-.021,1.115h-17.6a8.7,8.7,0,0,0,1.18,4.21,6.959,6.959,0,0,0,5.993,3.364,6.712,6.712,0,0,0,3.878-1.069,6.124,6.124,0,0,0,2.272-2.9h3.7a9.7,9.7,0,0,1-9.847,7.129Zm0-20.006a7.482,7.482,0,0,0-4.745,1.626,6.554,6.554,0,0,0-2.382,4.745h13.9a6.318,6.318,0,0,0-2.049-4.678A6.875,6.875,0,0,0,340.68,253.086Z" transform="translate(-103.555 -240.476)" fill="#fff"/>
        <path id="Caminho_173" data-name="Caminho 173" d="M354.5,273.092a10.825,10.825,0,0,1-5.614-1.448,10.253,10.253,0,0,1-3.855-4.033,12.6,12.6,0,0,1-1.4-6.1,12.808,12.808,0,0,1,1.38-6.081,10.052,10.052,0,0,1,3.855-4.055,11.126,11.126,0,0,1,5.725-1.448,10.34,10.34,0,0,1,5.548,1.448,9.809,9.809,0,0,1,3.586,3.809,10.718,10.718,0,0,1,1.248,5.081c0,.327-.007.653-.021.979s-.023.7-.023,1.115h-17.6a8.661,8.661,0,0,0,1.18,4.21,6.954,6.954,0,0,0,5.993,3.364,6.71,6.71,0,0,0,3.876-1.069,6.114,6.114,0,0,0,2.272-2.9h3.7a9.7,9.7,0,0,1-9.847,7.129Zm0-20.006a7.478,7.478,0,0,0-4.745,1.626,6.549,6.549,0,0,0-2.384,4.745h13.9a6.326,6.326,0,0,0-2.051-4.678A6.871,6.871,0,0,0,354.5,253.086Z" transform="translate(-92.915 -240.476)" fill="#fff"/>
      </g>
    </g>
  </g>
</svg>
