<svg id="Componente_1_2" data-name="Componente 1 – 2" xmlns="http://www.w3.org/2000/svg" xmlns:xlink="http://www.w3.org/1999/xlink" width="178" height="59.845" viewBox="0 0 178 59.845">
  <defs>
    <clipPath id="clip-path">
      <rect id="Retângulo_2" data-name="Retângulo 2" width="178" height="59.845" fill="none"/>
    </clipPath>
  </defs>
  <g id="Grupo_3" data-name="Grupo 3" clip-path="url(#clip-path)">
    <g id="Componente_4_1" data-name="Componente 4 – 1" transform="translate(149.726)">
      <path id="Caminho_1" data-name="Caminho 1" d="M532.969,13.786a14.141,14.141,0,0,0-28.274,0,14.141,14.141,0,0,0,28.274,0" transform="translate(-504.695)" fill="#83b341"/>
      <path id="Caminho_2" data-name="Caminho 2" d="M516.954,48.01a10.506,10.506,0,0,0,21,0Z" transform="translate(-513.317 -34.12)" fill="#fff"/>
      <path id="Caminho_3" data-name="Caminho 3" d="M553.2,26.909A8.7,8.7,0,0,0,562,18.322a8.7,8.7,0,0,0-8.805,8.587" transform="translate(-538.807 -13.021)" fill="#060"/>
      <path id="Caminho_4" data-name="Caminho 4" d="M531.094,26.534a8.856,8.856,0,0,0-8.964-8.743,8.856,8.856,0,0,0,8.964,8.743" transform="translate(-516.958 -12.644)" fill="#060"/>
    </g>
    <g id="Componente_3_1" data-name="Componente 3 – 1" transform="translate(114.685)">
      <path id="Caminho_5" data-name="Caminho 5" d="M414.851,13.786a14.141,14.141,0,0,0-28.274,0,14.141,14.141,0,0,0,28.274,0" transform="translate(-386.577)" fill="#00b5e2"/>
      <path id="Caminho_6" data-name="Caminho 6" d="M441.168,22.5,433.6,29.881h10.686c0-.035,0-.069,0-.1a10.084,10.084,0,0,0-3.117-7.28" transform="translate(-419.648 -15.988)" fill="#99e1f4"/>
      <path id="Caminho_7" data-name="Caminho 7" d="M409.335,12.263a10.373,10.373,0,0,0-10.5,10.241c0,.035,0,.069,0,.1h10.311l7.571-7.384a10.6,10.6,0,0,0-7.383-2.961" transform="translate(-395.198 -8.715)" fill="#4dcbeb"/>
      <path id="Caminho_8" data-name="Caminho 8" d="M398.844,48.018a10.5,10.5,0,0,0,21,0Z" transform="translate(-395.205 -34.125)" fill="#fff"/>
    </g>
    <g id="Componente_2_1" data-name="Componente 2 – 1" transform="translate(79.643)">
      <path id="Caminho_9" data-name="Caminho 9" d="M296.733,13.786a14.141,14.141,0,0,0-28.274,0,14.141,14.141,0,0,0,28.274,0" transform="translate(-268.459)" fill="#ba33ba"/>
      <path id="Caminho_10" data-name="Caminho 10" d="M280.717,48.01a10.506,10.506,0,0,0,21,0Z" transform="translate(-277.08 -34.12)" fill="#fff"/>
    </g>
    <g id="Componente_5_1" data-name="Componente 5 – 1" transform="translate(0 35.91)">
      <path id="Caminho_11" data-name="Caminho 11" d="M14.777,136.4h1.414a.221.221,0,0,1,.224.218v6.61a9.019,9.019,0,0,1-3.042,1.687,11.544,11.544,0,0,1-3.7.589,10.35,10.35,0,0,1-4.956-1.177,8.971,8.971,0,0,1,0-15.854A10.411,10.411,0,0,1,9.7,127.3a10.984,10.984,0,0,1,3.855.652,7.717,7.717,0,0,1,2.812,1.775.218.218,0,0,1,0,.308l-.9.9a.226.226,0,0,1-.311,0,7.678,7.678,0,0,0-5.374-1.949,8.418,8.418,0,0,0-4.025.959,7.158,7.158,0,0,0-2.819,2.66,7.315,7.315,0,0,0,2.806,10.241,8.24,8.24,0,0,0,4.012.972,8.14,8.14,0,0,0,4.8-1.38V136.62a.221.221,0,0,1,.224-.218" transform="translate(0 -126.377)" fill="#58595b"/>
      <path id="Caminho_12" data-name="Caminho 12" d="M72.687,143.55a6.6,6.6,0,0,1,2.981-.688.226.226,0,0,1,.232.221v1.542l-.446-.026a4.464,4.464,0,0,0-3.409,1.3,5.112,5.112,0,0,0-1.233,3.657v6.635a.221.221,0,0,1-.224.218H69.175a.221.221,0,0,1-.224-.218V143.18a.221.221,0,0,1,.224-.218H70.51a.221.221,0,0,1,.224.218V145.6a4.444,4.444,0,0,1,1.953-2.046" transform="translate(-48.496 -137.438)" fill="#58595b"/>
      <path id="Caminho_13" data-name="Caminho 13" d="M113.018,143.426v13.015a.221.221,0,0,1-.223.218h-1.336a.222.222,0,0,1-.224-.218V154.2a5.061,5.061,0,0,1-2.019,1.905,6.2,6.2,0,0,1-2.937.678,5.958,5.958,0,0,1-4.261-1.471,5.64,5.64,0,0,1-1.56-4.309v-7.581a.221.221,0,0,1,.224-.218H102.1a.221.221,0,0,1,.223.218v7.4a4.428,4.428,0,0,0,1.075,3.223,4.1,4.1,0,0,0,3.068,1.1,4.577,4.577,0,0,0,3.435-1.291,4.929,4.929,0,0,0,1.259-3.593v-6.84a.221.221,0,0,1,.223-.218h1.415a.221.221,0,0,1,.223.218" transform="translate(-70.655 -137.684)" fill="#58595b"/>
      <path id="Caminho_14" data-name="Caminho 14" d="M167.193,143.712a6.205,6.205,0,0,1,2.465,2.416,7.582,7.582,0,0,1,0,7.134,6.237,6.237,0,0,1-2.451,2.417,7.21,7.21,0,0,1-3.527.856,6.656,6.656,0,0,1-3.028-.678,5.688,5.688,0,0,1-2.216-1.982v7.274a.221.221,0,0,1-.224.218H156.8a.222.222,0,0,1-.224-.218V143.175a.222.222,0,0,1,.224-.218h1.335a.221.221,0,0,1,.224.218v2.441a5.676,5.676,0,0,1,2.215-2.046,6.633,6.633,0,0,1,3.107-.716,7.227,7.227,0,0,1,3.514.857m-1.023,10.561a4.659,4.659,0,0,0,1.849-1.854,5.532,5.532,0,0,0,.669-2.736,5.46,5.46,0,0,0-.669-2.723,4.773,4.773,0,0,0-1.849-1.854,5.533,5.533,0,0,0-5.257,0,4.792,4.792,0,0,0-1.835,1.854,5.46,5.46,0,0,0-.669,2.723,5.532,5.532,0,0,0,.669,2.736,4.676,4.676,0,0,0,1.835,1.854,5.622,5.622,0,0,0,5.257,0" transform="translate(-110.123 -137.433)" fill="#58595b"/>
      <path id="Caminho_15" data-name="Caminho 15" d="M213.836,155.653a6.518,6.518,0,0,1-2.518-2.442,7.247,7.247,0,0,1,0-7.058,6.429,6.429,0,0,1,2.518-2.429,7.859,7.859,0,0,1,7.185,0,6.345,6.345,0,0,1,2.5,2.429,7.337,7.337,0,0,1,0,7.058,6.432,6.432,0,0,1-2.5,2.442,7.753,7.753,0,0,1-7.185,0m6.228-1.381a4.6,4.6,0,0,0,1.822-1.854,6.04,6.04,0,0,0,0-5.473,4.608,4.608,0,0,0-1.822-1.854,5.656,5.656,0,0,0-5.271,0,4.688,4.688,0,0,0-1.835,1.854,5.93,5.93,0,0,0,0,5.473,4.681,4.681,0,0,0,1.835,1.854,5.65,5.65,0,0,0,5.271,0" transform="translate(-147.982 -137.433)" fill="#58595b"/>
      <path id="Caminho_16" data-name="Caminho 16" d="M285.319,145.511l-.026-11.648-5.966,9.714a.225.225,0,0,1-.192.106h-1.269a.226.226,0,0,1-.191-.1l-5.965-9.562v11.494a.221.221,0,0,1-.224.218h-2.8a.221.221,0,0,1-.224-.218V128.046a.221.221,0,0,1,.224-.218h2.455a.224.224,0,0,1,.192.106l7.224,11.76,7.094-11.758a.225.225,0,0,1,.193-.108H288.3a.221.221,0,0,1,.224.218l.026,17.464a.221.221,0,0,1-.224.218h-2.778a.221.221,0,0,1-.223-.218" transform="translate(-188.816 -126.754)" fill="#58595b"/>
      <path id="Caminho_17" data-name="Caminho 17" d="M357.3,143.415a5.508,5.508,0,0,1,1.639,4.36v7.786a.221.221,0,0,1-.224.218h-2.647a.221.221,0,0,1-.224-.218v-1.444a3.8,3.8,0,0,1-1.717,1.368,6.879,6.879,0,0,1-2.688.473,6.73,6.73,0,0,1-2.753-.524,4.223,4.223,0,0,1-1.822-1.458,3.633,3.633,0,0,1-.643-2.109,3.581,3.581,0,0,1,1.4-2.954,7.1,7.1,0,0,1,4.418-1.112h3.619v-.2a2.764,2.764,0,0,0-.878-2.2,3.867,3.867,0,0,0-2.609-.767,7.713,7.713,0,0,0-2.32.358,5.95,5.95,0,0,0-1.721.839.226.226,0,0,1-.332-.068l-1.066-1.931a.215.215,0,0,1,.065-.283,8.17,8.17,0,0,1,2.49-1.14,12.1,12.1,0,0,1,3.278-.434,6.942,6.942,0,0,1,4.733,1.445m-2.989,9.666a3.012,3.012,0,0,0,1.35-1.573v-1.586h-3.382q-2.833,0-2.832,1.816a1.617,1.617,0,0,0,.708,1.381,3.308,3.308,0,0,0,1.967.511,4.315,4.315,0,0,0,2.189-.55" transform="translate(-243.509 -136.804)" fill="#58595b"/>
      <path id="Caminho_18" data-name="Caminho 18" d="M400.8,124.116h2.83a.221.221,0,0,1,.223.218v18.538a.221.221,0,0,1-.223.218H400.8a.221.221,0,0,1-.224-.218V124.334a.221.221,0,0,1,.224-.218" transform="translate(-281.739 -124.116)" fill="#58595b"/>
      <path id="Caminho_19" data-name="Caminho 19" d="M441.224,142.794l-5,13.219a.224.224,0,0,1-.21.143h-2.836a.225.225,0,0,1-.209-.142l-3.564-9.269-3.616,9.27a.223.223,0,0,1-.209.141h-2.836a.224.224,0,0,1-.21-.143l-4.975-13.219a.219.219,0,0,1,.21-.293h2.617a.223.223,0,0,1,.21.145l3.644,9.93,3.8-9.933a.224.224,0,0,1,.209-.142h2.442a.225.225,0,0,1,.21.143l3.722,9.983,3.748-9.983a.224.224,0,0,1,.21-.143h2.433a.219.219,0,0,1,.21.294" transform="translate(-293.673 -137.181)" fill="#58595b"/>
      <path id="Caminho_20" data-name="Caminho 20" d="M512.541,149.974H501.554a3.7,3.7,0,0,0,1.508,2.391,5.029,5.029,0,0,0,3.029.882,5.2,5.2,0,0,0,3.633-1.323.226.226,0,0,1,.322.012l1.474,1.652a.216.216,0,0,1,0,.29,5.942,5.942,0,0,1-2.257,1.517,9.677,9.677,0,0,1-7.315-.332,6.544,6.544,0,0,1-2.715-2.494,6.9,6.9,0,0,1-.957-3.618,7,7,0,0,1,.931-3.593,6.53,6.53,0,0,1,2.582-2.494,7.7,7.7,0,0,1,3.724-.895,7.5,7.5,0,0,1,3.658.882,6.324,6.324,0,0,1,2.517,2.48,7.372,7.372,0,0,1,.9,3.695q0,.332-.053.946m-9.689-4.539a3.788,3.788,0,0,0-1.324,2.417h7.945a3.742,3.742,0,0,0-1.285-2.4,3.971,3.971,0,0,0-2.674-.921,4.017,4.017,0,0,0-2.662.908" transform="translate(-350.454 -136.804)" fill="#58595b"/>
      <path id="Caminho_21" data-name="Caminho 21" d="M566,149.974H555.018a3.7,3.7,0,0,0,1.508,2.391,5.029,5.029,0,0,0,3.029.882,5.2,5.2,0,0,0,3.634-1.323.226.226,0,0,1,.322.012l1.474,1.652a.216.216,0,0,1,0,.29,5.942,5.942,0,0,1-2.257,1.517,9.677,9.677,0,0,1-7.315-.332,6.543,6.543,0,0,1-2.714-2.494,6.9,6.9,0,0,1-.957-3.618,7,7,0,0,1,.931-3.593,6.529,6.529,0,0,1,2.583-2.494,7.7,7.7,0,0,1,3.723-.895,7.5,7.5,0,0,1,3.658.882,6.324,6.324,0,0,1,2.517,2.48,7.372,7.372,0,0,1,.9,3.695q0,.332-.052.946m-9.689-4.539a3.788,3.788,0,0,0-1.324,2.417h7.945a3.742,3.742,0,0,0-1.285-2.4,3.971,3.971,0,0,0-2.675-.921,4.017,4.017,0,0,0-2.661.908" transform="translate(-388.057 -136.804)" fill="#58595b"/>
    </g>
  </g>
</svg>
