<?xml version="1.0" encoding="utf-8"?><svg xmlns="http://www.w3.org/2000/svg" width="139" height="139" viewBox="0 0 139 139">
  <g id="Grupo_371" data-name="Grupo 371" transform="translate(-671 -1666)">
    <circle id="Elipse_48" data-name="Elipse 48" cx="69.5" cy="69.5" r="69.5" transform="translate(671 1666)" fill="#2273e1"/>
    <g id="Grupo_356" data-name="Grupo 356" transform="translate(228 711)">
      <g id="Layer_1_1_" transform="translate(482.794 989.941)">
        <path id="Caminho_301" data-name="Caminho 301" d="M6.431,29.911,9.808,50.167v7.448H52.6V50.168l3.377-20.256a5.034,5.034,0,1,0-4.635-5.018,5.012,5.012,0,0,0,.9,2.858L41.876,34.346,33.364,13.064a5.034,5.034,0,1,0-4.319,0L20.532,34.346,10.173,27.754a5.031,5.031,0,1,0-3.742,2.157ZM12.325,55.1V51.322H50.093L50.081,55.1H12.325ZM56.373,22.376a2.517,2.517,0,0,1,0,5.034,2.485,2.485,0,0,1-.946-.189l-.254-.1-.237-.166a2.512,2.512,0,0,1,1.437-4.576ZM28.686,8.533a2.517,2.517,0,1,1,2.839,2.479l-.322.042-.322-.042a2.515,2.515,0,0,1-2.195-2.479ZM21.739,38.1,31.2,14.439,40.667,38.1l12.742-8.109L50.273,48.805H12.116L9,29.989ZM6.033,22.376A2.512,2.512,0,0,1,7.47,26.952l-.237.166-.254.1a2.489,2.489,0,0,1-.946.189,2.517,2.517,0,1,1,0-5.034Z" transform="translate(0 0)" fill="#fff"/>
        <path id="Caminho_302" data-name="Caminho 302" d="M24,34.5h2.517v2.517H24Z" transform="translate(5.945 8.013)" fill="#fff"/>
      </g>
    </g>
  </g>
</svg>
