<svg id="Componente_3_9" data-name="Componente 3 – 9" xmlns="http://www.w3.org/2000/svg" width="141.304" height="141.302" viewBox="0 0 141.304 141.302">
  <path id="Caminho_5" data-name="Caminho 5" d="M527.881,70.65A70.652,70.652,0,1,0,457.229,141.3,70.651,70.651,0,0,0,527.881,70.65" transform="translate(-386.577)" fill="#00b5e2"/>
  <path id="Caminho_6" data-name="Caminho 6" d="M471.436,22.5,433.6,60.336H487c0-.178.013-.354.013-.532A52.312,52.312,0,0,0,471.436,22.5" transform="translate(-363.882 10.859)" fill="#99e1f4"/>
  <path id="Caminho_7" data-name="Caminho 7" d="M451.314,12.263a52.482,52.482,0,0,0-52.48,52.479c0,.179.012.356.013.534h51.53l37.838-37.839a52.3,52.3,0,0,0-36.9-15.174" transform="translate(-380.661 5.919)" fill="#4dcbeb"/>
  <path id="Caminho_8" data-name="Caminho 8" d="M398.844,48.018a52.468,52.468,0,0,0,104.931,0Z" transform="translate(-380.656 23.177)" fill="#fff"/>
</svg>
