<?xml version="1.0" encoding="utf-8"?><svg xmlns="http://www.w3.org/2000/svg" width="139" height="139" viewBox="0 0 139 139">
  <g id="Grupo_372" data-name="Grupo 372" transform="translate(-1128 -1666)">
    <circle id="Elipse_48" data-name="Elipse 48" cx="69.5" cy="69.5" r="69.5" transform="translate(1128 1666)" fill="#2273e1"/>
    <g id="Grupo_357" data-name="Grupo 357" transform="translate(1159.666 1697.667)">
      <rect id="Retângulo_126" data-name="Retângulo 126" width="76" height="76" transform="translate(0.333 0.333)" fill="none"/>
      <path id="Caminho_303" data-name="Caminho 303" d="M55.716,60.022a25.26,25.26,0,0,0,11.7,11.643,2.374,2.374,0,0,0,2.345-.177l7.5-5a2.4,2.4,0,0,1,2.273-.209l14.027,6.011a2.388,2.388,0,0,1,1.437,2.485A14.378,14.378,0,0,1,80.729,87.33,40.729,40.729,0,0,1,40,46.6,14.377,14.377,0,0,1,52.554,32.34a2.388,2.388,0,0,1,2.485,1.437l6.017,14.039a2.4,2.4,0,0,1-.2,2.256l-4.982,7.613a2.374,2.374,0,0,0-.161,2.338Z" transform="translate(-28.021 -22.643)" fill="none" stroke="#fff" stroke-linecap="round" stroke-linejoin="round" stroke-width="2"/>
    </g>
  </g>
</svg>
