<svg xmlns="http://www.w3.org/2000/svg" width="19.673" height="15.457" viewBox="0 0 19.673 15.457">
  <g id="Grupo_67" data-name="Grupo 67" transform="translate(0 0)">
    <path id="Caminho_76" data-name="Caminho 76" d="M34.257,329.535a1.681,1.681,0,0,0,1.151-.434l-5.574-5.574-.386.277q-.626.461-1.016.719a6.256,6.256,0,0,1-1.037.527,3.162,3.162,0,0,1-1.208.269h-.022a3.161,3.161,0,0,1-1.208-.269,6.236,6.236,0,0,1-1.037-.527q-.39-.258-1.016-.719l-.385-.279L16.946,329.1a1.682,1.682,0,0,0,1.151.434Z" transform="translate(-16.341 -314.077)" fill="#58595b"/>
    <path id="Caminho_77" data-name="Caminho 77" d="M1.109,199.51A5.82,5.82,0,0,1,0,198.555v8.48l4.913-4.913Q3.438,201.093,1.109,199.51Z" transform="translate(0 -193.571)" fill="#58595b"/>
    <path id="Caminho_78" data-name="Caminho 78" d="M417.122,199.51q-2.243,1.518-3.813,2.614l4.911,4.911v-8.48A6.06,6.06,0,0,1,417.122,199.51Z" transform="translate(-398.547 -193.571)" fill="#58595b"/>
    <path id="Caminho_79" data-name="Caminho 79" d="M17.922,59.013H1.762a1.568,1.568,0,0,0-1.3.571,2.215,2.215,0,0,0-.456,1.427,2.565,2.565,0,0,0,.6,1.5,5.446,5.446,0,0,0,1.284,1.268q.373.264,2.251,1.564c.676.468,1.263.876,1.768,1.229.43.3.8.56,1.108.775l.164.117.3.218q.357.258.593.417t.571.357a3.33,3.33,0,0,0,.631.3,1.747,1.747,0,0,0,.549.1h.022a1.747,1.747,0,0,0,.549-.1,3.323,3.323,0,0,0,.631-.3q.335-.2.571-.357t.593-.417l.3-.218.164-.117,1.111-.772,4.027-2.8a5.222,5.222,0,0,0,1.339-1.35,2.9,2.9,0,0,0,.538-1.658,1.771,1.771,0,0,0-1.757-1.757Z" transform="translate(-0.006 -59.013)" fill="#58595b"/>
  </g>
</svg>
