<svg id="facebook-letter-logo" xmlns="http://www.w3.org/2000/svg" width="10.841" height="23.325" viewBox="0 0 10.841 23.325">
  <g id="Grupo_73" data-name="Grupo 73" transform="translate(0)">
    <path id="Caminho_80" data-name="Caminho 80" d="M156.378,0h-2.43a5.229,5.229,0,0,0-4.005,1.323,5.574,5.574,0,0,0-1.217,3.9V6.86a.783.783,0,0,1-.783.783h-.84a.783.783,0,0,0-.783.783v2.453a.783.783,0,0,0,.783.783h.84a.783.783,0,0,1,.783.783v10.1a.783.783,0,0,0,.783.783h3.26a.783.783,0,0,0,.783-.783v-10.1a.783.783,0,0,1,.783-.783h1.646a.889.889,0,0,0,.865-.779l.26-2.462a.69.69,0,0,0-.7-.779h-2.071a.783.783,0,0,1-.783-.783V5.633a4.4,4.4,0,0,1,.043-.7,1.363,1.363,0,0,1,.191-.488.781.781,0,0,1,.481-.333,3.428,3.428,0,0,1,.884-.092h1.227a.783.783,0,0,0,.783-.783V.783A.783.783,0,0,0,156.378,0Z" transform="translate(-146.32 0)" fill="#0d1136"/>
  </g>
</svg>
