<svg id="facebook-letter-logo" xmlns="http://www.w3.org/2000/svg" width="9.745" height="20.967" viewBox="0 0 9.745 20.967">
  <g id="Grupo_73" data-name="Grupo 73" transform="translate(0)">
    <path id="Caminho_80" data-name="Caminho 80" d="M155.362,0h-2.184a4.7,4.7,0,0,0-3.6,1.19,5.01,5.01,0,0,0-1.094,3.505V6.166a.7.7,0,0,1-.7.7h-.755a.7.7,0,0,0-.7.7V9.78a.7.7,0,0,0,.7.7h.755a.7.7,0,0,1,.7.7v9.076a.7.7,0,0,0,.7.7h2.93a.7.7,0,0,0,.7-.7V11.188a.7.7,0,0,1,.7-.7h1.48a.8.8,0,0,0,.778-.7l.234-2.213a.62.62,0,0,0-.63-.7h-1.862a.7.7,0,0,1-.7-.7v-1.1a3.954,3.954,0,0,1,.038-.63A1.226,1.226,0,0,1,153.031,4a.7.7,0,0,1,.433-.3,3.082,3.082,0,0,1,.8-.083h1.1a.7.7,0,0,0,.7-.7V.7A.7.7,0,0,0,155.362,0Z" transform="translate(-146.32)" fill="#f5eee9"/>
  </g>
</svg>
