<?xml version="1.0" encoding="utf-8"?><svg xmlns="http://www.w3.org/2000/svg" width="139" height="139" viewBox="0 0 139 139">
  <g id="Grupo_373" data-name="Grupo 373" transform="translate(-1595 -1666)">
    <circle id="Elipse_48" data-name="Elipse 48" cx="69.5" cy="69.5" r="69.5" transform="translate(1595 1666)" fill="#2273e1"/>
    <g id="Grupo_358" data-name="Grupo 358" transform="translate(1571.725 1661.179)">
      <path id="Caminho_304" data-name="Caminho 304" d="M117.017,45.859V80.89a1.731,1.731,0,0,1-.006.178c-.006.062-.037.252-.006.092a2.112,2.112,0,0,1-.068.283c-.025.08-.049.16-.074.234-.037.1.006-.018.012-.031l-.074.148a2.335,2.335,0,0,1-.123.209c-.025.037-.043.068-.068.1-.074.117.086-.1,0,.006a2.981,2.981,0,0,1-.338.345c-.031.025-.062.055-.092.08.031-.025.135-.086-.006,0-.08.049-.16.1-.24.148-.031.018-.228.111-.148.074s-.123.043-.16.055c-.08.025-.16.043-.24.062-.043.006-.08.018-.123.025.092-.018.08-.006-.006,0-.1.006-.209.012-.314.012H68.6c-.369,0-.739.006-1.108,0-.086,0-.172-.006-.258-.012-.111-.012.018,0,.037.006-.043-.006-.08-.018-.123-.025-.08-.018-.16-.037-.24-.062-.055-.018-.277-.111-.123-.037a4.138,4.138,0,0,1-.455-.258c-.086-.055.012.012.025.025a1.072,1.072,0,0,1-.092-.08c-.068-.062-.142-.129-.2-.2a1.565,1.565,0,0,1-.16-.185c.1.123-.012-.031-.043-.074-.049-.08-.1-.16-.142-.246l-.055-.111c.037.08.025.068,0-.006q-.074-.24-.129-.48c.031.16,0-.031-.006-.092a1.614,1.614,0,0,1-.006-.172V45.865a2.481,2.481,0,0,1,.018-.3c.012-.111,0,.018-.006.037.012-.055.018-.111.031-.166.025-.092.049-.185.08-.277a.9.9,0,0,1,.043-.117c-.006.012-.062.129-.012.031.037-.074.074-.148.111-.215l.129-.2c.055-.086-.012.012-.025.025.043-.055.086-.1.129-.154a2.28,2.28,0,0,1,.172-.172c.031-.025.191-.16.123-.111s.111-.068.142-.086c.08-.049.166-.092.246-.135.012-.006.135-.062.037-.018s.055-.018.08-.025c.08-.025.16-.049.24-.068.037-.012.252-.055.166-.037-.1.018.031-.006.043-.006.055-.006.117-.006.172-.012H115c.086,0,.172.006.258.012.178.012-.086-.025.086.018.092.025.191.043.283.074.037.012.24.086.16.055s.117.055.148.074a2.334,2.334,0,0,1,.209.123.558.558,0,0,1,.1.068c-.012-.006-.1-.086-.025-.018s.142.123.209.191.111.117.166.178c.111.123-.037-.074.049.068a4.149,4.149,0,0,1,.24.425c-.068-.142.006.031.025.086a2.123,2.123,0,0,1,.074.283c.006.043.018.08.025.123,0-.012-.012-.148-.006-.037a2.053,2.053,0,0,1,.018.283.923.923,0,1,0,1.846,0A3.913,3.913,0,0,0,116,42.129,4.537,4.537,0,0,0,114.814,42H67.579a3.908,3.908,0,0,0-2.856,1.219,3.958,3.958,0,0,0-1.046,2.714V80.557c0,.172-.006.351.006.523a3.9,3.9,0,0,0,3.022,3.6,8.99,8.99,0,0,0,1.772.092H113.54c.48,0,.96.006,1.44,0a3.919,3.919,0,0,0,3.9-3.945V45.877a.934.934,0,0,0-.923-.923A.917.917,0,0,0,117.017,45.859Z" transform="translate(0 0)" fill="#fff"/>
      <path id="Caminho_305" data-name="Caminho 305" d="M233.059,290.3q1.385-2.566,2.776-5.127,2.188-4.053,4.382-8.1c.338-.622.671-1.243,1.009-1.865-.265.154-.529.308-.8.455h11.09c-.265-.154-.529-.308-.8-.455q1.385,2.566,2.776,5.127,2.188,4.053,4.382,8.1c.338.622.671,1.243,1.009,1.865a.923.923,0,0,0,1.594-.929q-1.385-2.566-2.776-5.127-2.188-4.053-4.382-8.1c-.339-.622-.671-1.243-1.009-1.865a.922.922,0,0,0-.8-.455H240.42a.93.93,0,0,0-.8.455q-1.385,2.566-2.776,5.127-2.188,4.053-4.382,8.1c-.339.622-.671,1.243-1.009,1.865a.928.928,0,0,0,1.606.929Zm-2.966-27.418,4.228-4.228L241,251.978l1.532-1.533h-1.3l2.9,2.9,4.622,4.622,1.059,1.059a.94.94,0,0,0,1.3,0l4.068-4.068,6.481-6.481,1.483-1.483a.923.923,0,0,0-1.3-1.3l-4.068,4.068-6.481,6.481-1.483,1.483h1.3l-2.9-2.9L243.59,250.2l-1.059-1.059a.94.94,0,0,0-1.3,0L237,253.369l-6.678,6.678-1.532,1.533a.923.923,0,1,0,1.3,1.3Z" transform="translate(-154.704 -190.905)" fill="#fff"/>
    </g>
  </g>
</svg>
