<svg xmlns="http://www.w3.org/2000/svg" width="139" height="139" viewBox="0 0 139 139">
  <g id="Grupo_370" data-name="Grupo 370" transform="translate(-199 -1666)">
    <circle id="Elipse_48" data-name="Elipse 48" cx="69.5" cy="69.5" r="69.5" transform="translate(199 1666)" fill="#2273e1"/>
    <g id="_Group_" data-name="&lt;Group&gt;" transform="translate(208.217 1646.5)">
      <g id="Grupo_355" data-name="Grupo 355" transform="translate(-43.401 49.785)">
        <path id="_Compound_Path_" data-name="&lt;Compound Path&gt;" d="M122.885,130.98a11.956,11.956,0,0,1,3.472,10.056.957.957,0,0,0,.242.782.991.991,0,0,0,.766.32h0l7.716,0a1.021,1.021,0,0,0,.441.116,1.007,1.007,0,0,0,.449-.1l7.763-.028a1.014,1.014,0,0,0,1-1.153,11.418,11.418,0,0,1,3.54-9.925l.01-.01a16.413,16.413,0,0,0,4.818-11.5,16.234,16.234,0,0,0-4.931-11.619,17.886,17.886,0,0,0-24.831-.145,15.99,15.99,0,0,0-.461,23.2Zm-2.724-11.688a14.183,14.183,0,0,1,4.586-10.041,15.776,15.776,0,0,1,10.641-4.377l.243,0a15.7,15.7,0,0,1,11.118,4.5,14.213,14.213,0,0,1,4.325,10.169,14.389,14.389,0,0,1-4.233,10.07,13.631,13.631,0,0,0-4.226,10.49l-6.073.025V121.895c.121.149.252.331.405.55a3.22,3.22,0,0,0,5.927,0c.541-.775.809-1.091,1.3-1.091a1.017,1.017,0,0,0,0-2.034,3.577,3.577,0,0,0-2.963,1.96c-.541.775-.809,1.091-1.3,1.091s-.755-.316-1.3-1.091a3.219,3.219,0,0,0-5.926,0c-.541.775-.809,1.09-1.3,1.09s-.755-.316-1.3-1.091a3.578,3.578,0,0,0-2.964-1.96,1.017,1.017,0,1,0,0,2.034c.486,0,.754.316,1.3,1.09a3.22,3.22,0,0,0,5.926,0c.053-.076.1-.147.152-.214v17.9l-6.025.024a14.067,14.067,0,0,0-4.163-10.618A14.142,14.142,0,0,1,120.161,119.292Z" transform="translate(-33.468 -83.218)" fill="#f5eee9"/>
        <path id="_Path_" data-name="&lt;Path&gt;" d="M101.8,16.019A1.017,1.017,0,0,0,102.819,15V8.517a1.017,1.017,0,0,0-2.034,0V15A1.017,1.017,0,0,0,101.8,16.019Zm16.75,7.584a1.013,1.013,0,0,0,.679-.26l5.015-4.5a1.017,1.017,0,1,0-1.358-1.514l-5.015,4.5a1.017,1.017,0,0,0,.68,1.774ZM84.9,22.722a1.017,1.017,0,1,0,1.411-1.465l-4.806-4.632a1.017,1.017,0,1,0-1.411,1.465Z" transform="translate(0)" fill="#f5eee9"/>
        <path id="_Compound_Path_2" data-name="&lt;Compound Path&gt;" d="M206.78,430.017A1.017,1.017,0,0,0,205.763,429H191.017A1.017,1.017,0,0,0,190,430.017v7.627a1.017,1.017,0,0,0,1.017,1.017h14.746a1.017,1.017,0,0,0,1.017-1.017Zm-2.034,6.61H192.034v-5.593h12.712Z" transform="translate(-96.206 -367.92)" fill="#f5eee9"/>
      </g>
    </g>
  </g>
</svg>
