<svg xmlns="http://www.w3.org/2000/svg" width="121" height="121" viewBox="0 0 121 121">
  <g id="Grupo_382" data-name="Grupo 382" transform="translate(-330 -2222)">
    <g id="Elipse_48" data-name="Elipse 48" transform="translate(330 2222)" fill="none" stroke="#6fad81" stroke-width="1">
      <circle cx="60.5" cy="60.5" r="60.5" stroke="none"/>
      <circle cx="60.5" cy="60.5" r="60" fill="none"/>
    </g>
    <g id="Grupo_356" data-name="Grupo 356" transform="translate(365.558 2255.513)">
      <g id="Layer_1_1_" transform="translate(0 0)">
        <path id="Caminho_301" data-name="Caminho 301" d="M5.72,26.449l2.934,17.6v6.472H45.835V44.051l2.934-17.6a4.374,4.374,0,1,0-4.028-4.36,4.355,4.355,0,0,0,.779,2.483l-9,5.729-7.4-18.492a4.374,4.374,0,1,0-3.753,0L17.972,30.3l-9-5.728A4.372,4.372,0,1,0,5.72,26.449Zm5.121,21.885V45.054H43.659l-.011,3.281H10.841ZM49.116,19.9a2.187,2.187,0,0,1,0,4.374,2.159,2.159,0,0,1-.822-.164l-.221-.09-.206-.144A2.183,2.183,0,0,1,49.116,19.9ZM25.057,7.873a2.187,2.187,0,1,1,2.467,2.154l-.28.036-.28-.036a2.185,2.185,0,0,1-1.907-2.154ZM19.021,33.562l8.224-20.557,8.224,20.557L46.54,26.516,43.815,42.867H10.659L7.948,26.517ZM5.373,19.9a2.183,2.183,0,0,1,1.249,3.976l-.206.144-.221.09a2.163,2.163,0,0,1-.822.164,2.187,2.187,0,1,1,0-4.374Z" transform="translate(-1.001 -3.501)" fill="#55af7d"/>
        <path id="Caminho_302" data-name="Caminho 302" d="M24,34.5h2.187v2.187H24Z" transform="translate(1.151 -0.601)" fill="#55af7d"/>
      </g>
    </g>
  </g>
</svg>
