<svg xmlns="http://www.w3.org/2000/svg" xmlns:xlink="http://www.w3.org/1999/xlink" width="18" height="18" viewBox="0 0 18 18">
  <defs>
    <clipPath id="clip-path">
      <rect id="Retângulo_37" data-name="Retângulo 37" width="18" height="18" transform="translate(-0.252 0.024)" fill="#58595b"/>
    </clipPath>
  </defs>
  <g id="Grupo_75" data-name="Grupo 75" transform="translate(0.252 -0.024)">
    <g id="Grupo_74" data-name="Grupo 74" transform="translate(0 0)" clip-path="url(#clip-path)">
      <path id="Caminho_81" data-name="Caminho 81" d="M12.969,18.129H5.161A5.167,5.167,0,0,1,0,12.969V5.159A5.166,5.166,0,0,1,5.161,0h7.808A5.166,5.166,0,0,1,18.13,5.159v7.81a5.168,5.168,0,0,1-5.161,5.16M5.161,1.553A3.612,3.612,0,0,0,1.554,5.159v7.81a3.612,3.612,0,0,0,3.607,3.607h7.808a3.613,3.613,0,0,0,3.607-3.607V5.159a3.612,3.612,0,0,0-3.607-3.606Z" transform="translate(0 0)" fill="#58595b"/>
      <path id="Caminho_82" data-name="Caminho 82" d="M8.1,12.744A4.644,4.644,0,1,1,12.742,8.1,4.648,4.648,0,0,1,8.1,12.744m0-7.731A3.087,3.087,0,1,0,11.186,8.1,3.089,3.089,0,0,0,8.1,5.013" transform="translate(0.965 0.965)" fill="#58595b"/>
      <path id="Caminho_83" data-name="Caminho 83" d="M12.231,3.494a1.116,1.116,0,1,1-1.117-1.117,1.116,1.116,0,0,1,1.117,1.117" transform="translate(2.791 0.664)" fill="#58595b"/>
    </g>
  </g>
</svg>
