<svg id="linked-in-logo-of-two-letters" xmlns="http://www.w3.org/2000/svg" width="20.905" height="19.096" viewBox="0 0 20.905 19.096">
  <g id="Grupo_76" data-name="Grupo 76" transform="translate(0 0)">
    <path id="Caminho_84" data-name="Caminho 84" d="M.679,192.087H3.4a.679.679,0,0,0,.679-.679V179.529a.679.679,0,0,0-.679-.679H.679a.679.679,0,0,0-.679.679v11.879A.679.679,0,0,0,.679,192.087Z" transform="translate(0 -172.991)" fill="#0d1136"/>
    <path id="Caminho_85" data-name="Caminho 85" d="M.679,27.687H3.4a.679.679,0,0,0,.679-.679V24.595a.679.679,0,0,0-.679-.679H.679A.679.679,0,0,0,0,24.595v2.413A.679.679,0,0,0,.679,27.687Z" transform="translate(0 -23.916)" fill="#0d1136"/>
    <path id="Caminho_86" data-name="Caminho 86" d="M194.561,171.371a4.132,4.132,0,0,0-1.69-1.24,6.117,6.117,0,0,0-2.466-.486,6.038,6.038,0,0,0-4.64,2.09c-.252.277-.436.217-.436-.158v-.9a.679.679,0,0,0-.679-.679h-2.428a.679.679,0,0,0-.679.679v11.879a.679.679,0,0,0,.679.679h2.718a.679.679,0,0,0,.679-.679V178.42a13.29,13.29,0,0,1,.312-3.539,2.922,2.922,0,0,1,1.153-1.537,3.268,3.268,0,0,1,1.9-.58,2.424,2.424,0,0,1,1.414.406,2.263,2.263,0,0,1,.848,1.138,12.145,12.145,0,0,1,.261,3.227v5.016a.679.679,0,0,0,.679.679H194.9a.679.679,0,0,0,.679-.679v-6.727a12.743,12.743,0,0,0-.225-2.741A4.489,4.489,0,0,0,194.561,171.371Z" transform="translate(-174.678 -164.134)" fill="#0d1136"/>
  </g>
</svg>
