<svg id="linked-in-logo-of-two-letters" xmlns="http://www.w3.org/2000/svg" width="18.792" height="17.166" viewBox="0 0 18.792 17.166">
  <g id="Grupo_76" data-name="Grupo 76" transform="translate(0 0)">
    <path id="Caminho_84" data-name="Caminho 84" d="M.61,190.749H3.053a.61.61,0,0,0,.61-.61V179.46a.61.61,0,0,0-.61-.61H.61a.61.61,0,0,0-.61.61v10.678A.61.61,0,0,0,.61,190.749Z" transform="translate(0 -173.583)" fill="#58595b"/>
    <path id="Caminho_85" data-name="Caminho 85" d="M.61,27.306H3.053a.61.61,0,0,0,.61-.61V24.526a.61.61,0,0,0-.61-.61H.61a.61.61,0,0,0-.61.61V26.7A.61.61,0,0,0,.61,27.306Z" transform="translate(0 -23.916)" fill="#58595b"/>
    <path id="Caminho_86" data-name="Caminho 86" d="M193.245,171.2a3.714,3.714,0,0,0-1.519-1.115,5.5,5.5,0,0,0-2.216-.437,5.428,5.428,0,0,0-4.171,1.879c-.227.249-.392.195-.392-.142v-.813a.61.61,0,0,0-.61-.61h-2.182a.61.61,0,0,0-.61.61v10.678a.61.61,0,0,0,.61.61H184.6a.61.61,0,0,0,.61-.61v-3.714a11.946,11.946,0,0,1,.28-3.181,2.627,2.627,0,0,1,1.036-1.382,2.938,2.938,0,0,1,1.708-.522,2.179,2.179,0,0,1,1.271.365,2.034,2.034,0,0,1,.763,1.023,10.917,10.917,0,0,1,.235,2.9v4.509a.61.61,0,0,0,.61.61h2.443a.61.61,0,0,0,.61-.61V175.2a11.454,11.454,0,0,0-.2-2.464A4.036,4.036,0,0,0,193.245,171.2Z" transform="translate(-175.372 -164.691)" fill="#58595b"/>
  </g>
</svg>
