<svg id="call-black-auricular-shape" xmlns="http://www.w3.org/2000/svg" width="19.567" height="19.325" viewBox="0 0 19.567 19.325">
  <g id="Grupo_66" data-name="Grupo 66" transform="translate(0 0)">
    <path id="Caminho_75" data-name="Caminho 75" d="M15.333,3.06a4.232,4.232,0,0,0-.547,8.429l-.066.108c-.095.154-.146.239-.156.257a14.182,14.182,0,0,1-2.353,3.177,14.182,14.182,0,0,1-3.177,2.353q-.027.013-.257.156c-.146.09-.25.151-.314.184a4.233,4.233,0,1,0-5.77,4.022,5.2,5.2,0,0,0,2.42.641,5.207,5.207,0,0,0,.71-.047,5.864,5.864,0,0,0,.778-.169c.289-.081.5-.146.642-.2s.39-.142.75-.277.582-.216.662-.243a12.231,12.231,0,0,0,2.366-1.122A20.047,20.047,0,0,0,14.6,17.417a20.071,20.071,0,0,0,2.914-3.576,12.233,12.233,0,0,0,1.122-2.366q.041-.122.243-.663t.277-.751q.074-.21.2-.642a5.888,5.888,0,0,0,.169-.777,5.2,5.2,0,0,0,.047-.71c0-.116-.006-.232-.015-.349.006-.1.015-.192.015-.29A4.234,4.234,0,0,0,15.333,3.06Z" transform="translate(0 -3.06)" fill="#f5eee9"/>
  </g>
</svg>
