<svg id="Componente_4_9" data-name="Componente 4 – 9" xmlns="http://www.w3.org/2000/svg" width="141.305" height="141.302" viewBox="0 0 141.305 141.302">
  <path id="Caminho_1" data-name="Caminho 1" d="M646,70.65A70.652,70.652,0,1,0,575.347,141.3,70.652,70.652,0,0,0,646,70.65" transform="translate(-504.695)" fill="#83b341"/>
  <path id="Caminho_2" data-name="Caminho 2" d="M516.954,48.01a52.479,52.479,0,0,0,104.953,0Z" transform="translate(-498.778 23.173)" fill="#fff"/>
  <path id="Caminho_3" data-name="Caminho 3" d="M553.2,62.329A44.008,44.008,0,0,0,597.2,18.322,44.006,44.006,0,0,0,553.2,62.329" transform="translate(-481.285 8.844)" fill="#060"/>
  <path id="Caminho_4" data-name="Caminho 4" d="M566.932,62.6a44.8,44.8,0,0,0-44.8-44.8,44.8,44.8,0,0,0,44.8,44.8" transform="translate(-496.28 8.587)" fill="#060"/>
</svg>
