<svg xmlns="http://www.w3.org/2000/svg" width="96" height="96" viewBox="0 0 96 96">
  <g id="Grupo_119" data-name="Grupo 119" transform="translate(-128 -2107)">
    <circle id="Elipse_5" data-name="Elipse 5" cx="48" cy="48" r="48" transform="translate(128 2107)" fill="#fff"/>
    <g id="biografia" transform="translate(154.156 2130.156)">
      <path id="Caminho_105" data-name="Caminho 105" d="M51.177,2.063a.828.828,0,0,0-.9.18L41.75,10.767V4.484a.828.828,0,0,0-.828-.828H6.969A4.974,4.974,0,0,0,2,8.625V46.719a4.974,4.974,0,0,0,4.969,4.969H40.922a.828.828,0,0,0,.828-.828V28.015l3.874-3.874A20.567,20.567,0,0,0,51.688,9.5V2.828a.828.828,0,0,0-.511-.765ZM40.094,50.031H6.969a3.313,3.313,0,1,1,0-6.625H40.094Zm0-8.281H6.969a4.943,4.943,0,0,0-3.313,1.275V8.625A3.316,3.316,0,0,1,6.969,5.313H40.094v7.11L28.743,23.774a.826.826,0,0,0-.243.585v7.11L23.774,36.2l1.171,1.171,4.726-4.726h7.11a.825.825,0,0,0,.585-.243l2.727-2.727ZM50.031,9.5A18.924,18.924,0,0,1,44.453,22.97l-8.015,8.015H31.327L44.82,17.492l-1.171-1.171L30.156,29.813V24.7L50.031,4.827Z" fill="#83b341"/>
      <path id="Caminho_106" data-name="Caminho 106" d="M24.281,25.563A8.281,8.281,0,1,0,16,17.281,8.291,8.291,0,0,0,24.281,25.563ZM20.208,22.5a4.111,4.111,0,0,1,8.147,0,6.585,6.585,0,0,1-8.147,0Zm2.417-6.87a1.656,1.656,0,1,1,1.656,1.656A1.658,1.658,0,0,1,22.625,15.625Zm1.656-4.969a6.617,6.617,0,0,1,5.43,10.41,5.788,5.788,0,0,0-2.977-3.235,3.313,3.313,0,1,0-4.906,0,5.788,5.788,0,0,0-2.977,3.235,6.617,6.617,0,0,1,5.43-10.41Z" transform="translate(-2.406 -1.203)" fill="#83b341"/>
      <path id="Caminho_107" data-name="Caminho 107" d="M17,43h8.281v1.656H17Z" transform="translate(-2.578 -7.047)" fill="#83b341"/>
      <path id="Caminho_108" data-name="Caminho 108" d="M17,38H27.766v1.656H17Z" transform="translate(-2.578 -6.187)" fill="#83b341"/>
      <path id="Caminho_109" data-name="Caminho 109" d="M17,33H29.422v1.656H17Z" transform="translate(-2.578 -5.328)" fill="#83b341"/>
    </g>
  </g>
</svg>
