<?xml version="1.0" encoding="utf-8"?><svg xmlns="http://www.w3.org/2000/svg" width="109" height="109" viewBox="0 0 109 109">
  <g id="Grupo_372" data-name="Grupo 372" transform="translate(-1419 -6956)">
    <circle id="Elipse_60" data-name="Elipse 60" cx="54.5" cy="54.5" r="54.5" transform="translate(1419 6956)" fill="#2273e1"/>
    <path id="_32_Start_Up_Asset_Finance_Money_Startup_Technology" data-name="32 Start Up, Asset, Finance, Money, Startup, Technology" d="M35.4,29.686V19.126c0-4.784-7.364-15.436-8.2-16.635a1.142,1.142,0,0,0-1.872,0c-.833,1.2-8.2,11.851-8.2,16.635V29.686A13.187,13.187,0,0,0,8,42.245v2a1.142,1.142,0,0,0,1.142,1.142,1.142,1.142,0,0,0,.274,0l9-2.283h15.71l9,2.283a1.286,1.286,0,0,0,1.416-1.142v-2A13.187,13.187,0,0,0,35.4,29.686ZM10.283,42.245a10.9,10.9,0,0,1,6.85-10.139v8.963l-6.85,1.713Zm9.134-11.7V19.126c0-3.026,4.327-10.161,6.85-13.952,2.523,3.791,6.85,10.926,6.85,13.952V40.818h-13.7ZM42.252,42.782,35.4,41.069V32.107a10.9,10.9,0,0,1,6.85,10.139ZM27.409,22.551h2.283v2.283H25.126v1.142h3.425a1.142,1.142,0,0,1,1.142,1.142v3.425a1.142,1.142,0,0,1-1.142,1.142H27.409v1.142H25.126V31.684H22.842V29.4h4.567V28.259H23.984a1.142,1.142,0,0,1-1.142-1.142V23.692a1.142,1.142,0,0,1,1.142-1.142h1.142V21.409h2.283ZM19.417,45.385H21.7v6.85H19.417Zm5.709,0h2.283v6.85H25.126Zm5.709,0h2.283v6.85H30.834Z" transform="translate(1447 6983.381)" fill="#f5eee9"/>
  </g>
</svg>
