<?xml version="1.0" encoding="utf-8"?><svg xmlns="http://www.w3.org/2000/svg" width="109" height="109" viewBox="0 0 109 109">
  <g id="Grupo_370" data-name="Grupo 370" transform="translate(-429 -7747)">
    <circle id="Elipse_58" data-name="Elipse 58" cx="54.5" cy="54.5" r="54.5" transform="translate(429 7747)" fill="#2273e1"/>
    <path id="Caminho_308" data-name="Caminho 308" d="M37.109,324.894l2.929-8.79a5.716,5.716,0,0,1,5.423-3.907H81.871a5.716,5.716,0,0,1,5.423,3.907l2.929,8.79a1.965,1.965,0,0,1,.107.533v.029l0,.055v6.5a6.86,6.86,0,0,1-3.809,6.141V352.2a5.716,5.716,0,0,1-5.714,5.714H46.524a5.716,5.716,0,0,1-5.714-5.714V338.151A6.86,6.86,0,0,1,37,332.01v-6.527l0-.055A1.964,1.964,0,0,1,37.109,324.894Zm11.7,11.857c-.034.036-.069.07-.1.1a6.844,6.844,0,0,1-4.088,1.966V352.2a1.905,1.905,0,0,0,1.9,1.9h9.524v-5.714a7.622,7.622,0,0,1,7.619-7.619v0a7.622,7.622,0,0,1,7.619,7.619V354.1h9.524a1.905,1.905,0,0,0,1.9-1.9V338.821a6.844,6.844,0,0,1-4.088-1.966c-.034-.034-.069-.069-.1-.1-.034.036-.069.07-.1.1a6.853,6.853,0,0,1-4.846,2.008h-.008a6.853,6.853,0,0,1-4.846-2.008c-.034-.034-.069-.069-.1-.1-.034.036-.069.07-.1.1a6.853,6.853,0,0,1-4.846,2.008h-.008a6.853,6.853,0,0,1-4.846-2.008c-.034-.034-.069-.069-.1-.1-.034.036-.069.07-.1.1a6.853,6.853,0,0,1-4.846,2.008h-.008a6.853,6.853,0,0,1-4.846-2.008C48.878,336.821,48.844,336.787,48.809,336.751ZM67.475,354.1v-5.714a3.811,3.811,0,0,0-3.809-3.809v0a3.811,3.811,0,0,0-3.809,3.809V354.1ZM56.809,327.435h-6.1v4.575a3.043,3.043,0,0,0,3.044,3.044h.008a3.043,3.043,0,0,0,3.044-3.044Zm29.714,0h-6.1v4.575a3.043,3.043,0,0,0,3.044,3.044h.008a3.043,3.043,0,0,0,3.044-3.044Zm-19.809,0h-6.1v4.575a3.043,3.043,0,0,0,3.044,3.044h.008a3.043,3.043,0,0,0,3.044-3.044Zm-19.809,0h-6.1v4.575a3.043,3.043,0,0,0,3.044,3.044h.008A3.043,3.043,0,0,0,46.9,332.01Zm29.714,0h-6.1v4.575a3.043,3.043,0,0,0,3.044,3.044h.008a3.043,3.043,0,0,0,3.044-3.044Zm-35.072-3.809H85.785l-2.107-6.316a1.905,1.905,0,0,0-1.808-1.3H45.461a1.905,1.905,0,0,0-1.808,1.3Z" transform="translate(419.334 7467.144)" fill="#f5eee9" fill-rule="evenodd"/>
  </g>
</svg>
