<svg xmlns="http://www.w3.org/2000/svg" width="109" height="109" viewBox="0 0 109 109">
  <g id="Grupo_371" data-name="Grupo 371" transform="translate(-906 -7747)">
    <circle id="Elipse_59" data-name="Elipse 59" cx="54.5" cy="54.5" r="54.5" transform="translate(906 7747)" fill="#2273e1"/>
    <path id="Caminho_307" data-name="Caminho 307" d="M58.357,320.648a.9.9,0,1,0,.9.9A.9.9,0,0,0,58.357,320.648Zm-16.27-9.035a.9.9,0,1,0,.9.9A.9.9,0,0,0,42.087,311.613Zm34.326,0a.9.9,0,1,0,.91.9A.9.9,0,0,0,76.414,311.613Zm-3.6,0a.9.9,0,1,0,.9.9A.9.9,0,0,0,72.813,311.613Zm-27.111,0a.9.9,0,1,0,.9.9A.9.9,0,0,0,45.7,311.613Zm3.615,0a.9.9,0,1,0,.9.9A.9.9,0,0,0,49.317,311.613Zm19.882,0a.9.9,0,1,0,.9.9A.9.9,0,0,0,69.2,311.613ZM58.34,300.775A6.327,6.327,0,0,0,52.03,307.1a.9.9,0,1,0,1.8,0,4.515,4.515,0,1,1,9.031,0,5.322,5.322,0,0,1-2.094,4.524,7.62,7.62,0,0,0-3.321,6.255.851.851,0,0,0,.907.962.88.88,0,0,0,.894-.962,6.545,6.545,0,0,1,2.6-4.8,8,8,0,0,0,2.815-5.976,6.335,6.335,0,0,0-6.323-6.323ZM55.647,282.7A10.862,10.862,0,0,0,44.8,293.548l0,.9a.9.9,0,0,0,.9.9.917.917,0,0,0,.9-.9l0-.9a9.039,9.039,0,0,1,9.046-9.046H73.707a9.039,9.039,0,0,1,9.046,9.046V319.76a9.913,9.913,0,0,1-9.924,9.924h-2.9a2.708,2.708,0,0,0-2.651-1.8H65.649a2.8,2.8,0,0,0-2.788,2.788,2.547,2.547,0,0,0,2.827,2.629h1.631a2.781,2.781,0,0,0,2.583-1.8h2.926A11.747,11.747,0,0,0,84.552,319.76v-5.431c1.8-.6,3.614-1.625,3.614-3.614v-3.628c0-1.986-1.823-3-3.614-3.6v-9.938A10.862,10.862,0,0,0,73.707,282.7Zm28.9,22.584c.839.225,1.814.793,1.814,1.8v3.628c0,1.008-.912,1.572-1.814,1.814Zm-18.9,24.4h1.694a.89.89,0,0,1,.921.851.951.951,0,0,1-.946.949l-1.708.014a.881.881,0,0,1-.907-.854.96.96,0,0,1,.946-.96ZM42.16,297.162a4.6,4.6,0,0,0-4.589,4.589v19.729a4.6,4.6,0,0,0,4.589,4.589h.827v6.323a.9.9,0,0,0,1.547.64l6.963-6.963H76.348a4.6,4.6,0,0,0,4.589-4.589V301.75a4.6,4.6,0,0,0-4.589-4.589Zm0,1.8H76.348a2.774,2.774,0,0,1,2.788,2.788v19.729a2.774,2.774,0,0,1-2.788,2.788H51.123a.9.9,0,0,0-.64.267L44.8,330.2v-5.043a.9.9,0,0,0-.907-.894H42.16a2.774,2.774,0,0,1-2.788-2.788V301.75A2.774,2.774,0,0,1,42.16,298.963Z" transform="translate(896.93 7493.498)" fill="#f5eee9" stroke="#f5eee9" stroke-width="1"/>
  </g>
</svg>
