<svg id="twitter-black-shape" xmlns="http://www.w3.org/2000/svg" width="20.408" height="17.281" viewBox="0 0 20.408 17.281">
  <g id="Grupo_77" data-name="Grupo 77" transform="translate(0 0)">
    <path id="Caminho_87" data-name="Caminho 87" d="M19.809,44.09q-.151.044-.3.082c-.615.155-.672-.05-.226-.5a4.1,4.1,0,0,0,.529-.661c.343-.534.045-.766-.538-.517q-.312.133-.634.241a2.652,2.652,0,0,1-1.99-.442,4.4,4.4,0,0,0-5.391.632A4.2,4.2,0,0,0,9.98,46.009a4.606,4.606,0,0,0,.028.5c.031.276-.435.477-1.063.388a12.069,12.069,0,0,1-3.873-1.235A12.419,12.419,0,0,1,1.861,43.3c-.444-.454-1.044-.415-1.209.2A4.37,4.37,0,0,0,.5,44.645a4.248,4.248,0,0,0,.527,2.079,4.464,4.464,0,0,0,.614.863c.395.434.334.685-.215.531a7.083,7.083,0,0,1-.952-.368v.027a4.213,4.213,0,0,0,.992,2.774,4.34,4.34,0,0,0,1.42,1.137c.569.282.833.439.515.48a4.508,4.508,0,0,1-.579.037q-.2,0-.413-.018c-.227-.019-.268.455.076.987A4.366,4.366,0,0,0,3.54,54.292a4.267,4.267,0,0,0,1.4.705c.61.174.733.491.189.817A8.521,8.521,0,0,1,.664,57.026q-.276,0-.527-.012c-.291-.014-.1.242.466.537a12.11,12.11,0,0,0,5.7,1.379,12.751,12.751,0,0,0,4.361-.736,11.091,11.091,0,0,0,3.483-1.971,13.191,13.191,0,0,0,2.491-2.842A12.677,12.677,0,0,0,18.2,50.026a12.4,12.4,0,0,0,.513-3.5c0-.105,0-.2,0-.283,0-.157.411-.581.874-1.015q.313-.294.6-.617C20.6,44.13,20.418,43.912,19.809,44.09Z" transform="translate(-0.003 -41.648)" fill="#58595b"/>
  </g>
</svg>
