<svg id="twitter-black-shape" xmlns="http://www.w3.org/2000/svg" width="22.703" height="19.225" viewBox="0 0 22.703 19.225">
  <g id="Grupo_77" data-name="Grupo 77" transform="translate(0 0)">
    <path id="Caminho_87" data-name="Caminho 87" d="M22.037,44.364q-.168.049-.336.091c-.684.173-.747-.055-.252-.558a4.565,4.565,0,0,0,.588-.735c.382-.594.051-.853-.6-.575q-.347.148-.706.269a2.951,2.951,0,0,1-2.214-.492,4.9,4.9,0,0,0-6,.7A4.677,4.677,0,0,0,11.1,46.5a5.124,5.124,0,0,0,.031.559c.034.307-.484.53-1.182.432a13.426,13.426,0,0,1-4.308-1.373,13.816,13.816,0,0,1-3.573-2.628c-.494-.5-1.161-.461-1.345.22a4.861,4.861,0,0,0-.165,1.274A4.726,4.726,0,0,0,1.145,47.3a4.966,4.966,0,0,0,.683.96c.439.482.372.762-.239.591a7.879,7.879,0,0,1-1.059-.409v.03a4.687,4.687,0,0,0,1.1,3.086,4.828,4.828,0,0,0,1.58,1.264c.633.313.927.488.573.534a5.015,5.015,0,0,1-.644.041q-.219,0-.459-.02c-.253-.021-.3.506.085,1.1a4.857,4.857,0,0,0,1.17,1.243A4.747,4.747,0,0,0,5.5,56.5c.679.193.815.546.21.909A9.479,9.479,0,0,1,.739,58.755q-.307,0-.586-.014c-.324-.016-.107.27.519.6a13.471,13.471,0,0,0,6.346,1.534,14.185,14.185,0,0,0,4.851-.818,12.338,12.338,0,0,0,3.875-2.193A14.674,14.674,0,0,0,18.514,54.7a14.1,14.1,0,0,0,1.735-3.732,13.791,13.791,0,0,0,.571-3.9c0-.117,0-.223,0-.315,0-.174.457-.646.972-1.129q.348-.327.665-.687C22.921,44.41,22.714,44.167,22.037,44.364Z" transform="translate(-0.003 -41.648)" fill="#0d1136"/>
  </g>
</svg>
