<svg id="youtube" xmlns="http://www.w3.org/2000/svg" width="25.665" height="20.167" viewBox="0 0 25.665 20.167">
  <path id="Caminho_88" data-name="Caminho 88" d="M198.157,109.755l-5.67-3.1a1.041,1.041,0,0,0-1.541.914v6.151a1.04,1.04,0,0,0,1.535.917l5.67-3.049a1.041,1.041,0,0,0,.006-1.831Zm-5.707,3.189v-4.6l4.238,2.319Zm0,0" transform="translate(-181.374 -100.837)" fill="#0d1136"/>
  <path id="Caminho_89" data-name="Caminho 89" d="M25.476,4.76V4.748a6.235,6.235,0,0,0-1.131-3.09A4.107,4.107,0,0,0,21.578.312L21.45.3l-.045,0C18.012.035,12.888,0,12.837,0h-.009c-.051,0-5.175.035-8.6.291L4.184.3l-.12.015A4.008,4.008,0,0,0,1.314,1.7,6.533,6.533,0,0,0,.192,4.733l0,.027C.181,4.849,0,6.972,0,9.1V11.1c0,2.131.181,4.254.189,4.344v.013a6.173,6.173,0,0,0,1.127,3.052,4.187,4.187,0,0,0,2.859,1.327c.1.012.194.023.256.034l.059.009c1.959.193,8.1.289,8.362.293h.016c.051,0,5.175-.035,8.568-.291l.045,0,.144-.017A3.914,3.914,0,0,0,24.351,18.5a6.532,6.532,0,0,0,1.122-3.034l0-.027c.008-.089.189-2.212.189-4.344V9.1C25.665,6.972,25.484,4.849,25.476,4.76ZM24.161,11.1c0,1.973-.166,4-.182,4.191a5.075,5.075,0,0,1-.738,2.161,2.433,2.433,0,0,1-1.775.854l-.16.019c-3.282.246-8.212.284-8.44.285-.255,0-6.307-.1-8.206-.283-.1-.016-.2-.029-.313-.042a2.76,2.76,0,0,1-1.923-.833l-.014-.015a4.6,4.6,0,0,1-.723-2.14c-.012-.141-.182-2.2-.182-4.2V9.1c0-1.97.166-4,.182-4.19a4.971,4.971,0,0,1,.738-2.162,2.554,2.554,0,0,1,1.813-.89l.123-.015c3.33-.247,8.3-.284,8.474-.286s5.142.038,8.442.286l.132.016a2.647,2.647,0,0,1,1.842.866l.006.007a4.68,4.68,0,0,1,.723,2.171c.011.133.182,2.193.182,4.2Zm0,0" transform="translate(0)" fill="#0d1136"/>
</svg>
