<svg id="youtube" xmlns="http://www.w3.org/2000/svg" width="23.071" height="18.129" viewBox="0 0 23.071 18.129">
  <path id="Caminho_88" data-name="Caminho 88" d="M197.428,109.428l-5.1-2.789a.936.936,0,0,0-1.386.821v5.53a.934.934,0,0,0,1.38.824l5.1-2.741a.936.936,0,0,0,.006-1.646Zm-5.13,2.867v-4.133l3.809,2.084Zm0,0" transform="translate(-182.341 -101.411)" fill="#58595b"/>
  <path id="Caminho_89" data-name="Caminho 89" d="M22.9,4.279V4.268A5.6,5.6,0,0,0,21.883,1.49,3.692,3.692,0,0,0,19.4.28L19.282.266l-.04,0C16.192.032,11.585,0,11.539,0h-.008C11.485,0,6.879.032,3.8.262l-.041,0L3.653.28A3.6,3.6,0,0,0,1.181,1.527,5.873,5.873,0,0,0,.172,4.254l0,.024C.163,4.359,0,6.267,0,8.183V9.974c0,1.916.163,3.824.17,3.9v.012a5.549,5.549,0,0,0,1.013,2.744,3.764,3.764,0,0,0,2.57,1.192c.094.011.175.021.23.031l.053.008c1.761.174,7.282.259,7.517.263h.014c.046,0,4.652-.032,7.7-.262l.04,0,.129-.015a3.518,3.518,0,0,0,2.451-1.216A5.872,5.872,0,0,0,22.9,13.9l0-.024c.007-.08.17-1.989.17-3.9V8.183C23.071,6.267,22.908,4.359,22.9,4.279Zm-1.182,5.7c0,1.773-.149,3.6-.163,3.767a4.562,4.562,0,0,1-.663,1.943,2.187,2.187,0,0,1-1.6.768l-.144.017c-2.95.221-7.382.255-7.586.257-.229,0-5.67-.09-7.377-.254-.087-.015-.182-.026-.282-.038a2.481,2.481,0,0,1-1.729-.749l-.012-.014a4.139,4.139,0,0,1-.65-1.924c-.011-.127-.164-1.975-.164-3.773V8.183c0-1.771.149-3.6.163-3.767a4.468,4.468,0,0,1,.663-1.944,2.3,2.3,0,0,1,1.629-.8l.11-.014c2.993-.222,7.457-.255,7.617-.257s4.623.034,7.589.257l.119.015a2.38,2.38,0,0,1,1.656.778l.005.006a4.207,4.207,0,0,1,.65,1.952c.01.12.164,1.971.164,3.773Zm0,0" transform="translate(0)" fill="#58595b"/>
</svg>
